<svg width="388" height="63" viewBox="0 0 388 63" fill="none" xmlns="http://www.w3.org/2000/svg">
<path d="M0 31.6749V31.5C0 14.1832 13.1381 0 31.9741 0C41.1711 0 47.3935 2.43763 52.4734 6.17794C53.2904 6.80502 53.952 7.60975 54.4072 8.53034C54.8625 9.45094 55.0993 10.4629 55.0996 11.4886C55.0982 12.3525 54.9244 13.2076 54.5883 14.0044C54.2522 14.8011 53.7603 15.5238 53.1412 16.1305C52.5222 16.7372 51.7881 17.2159 50.9816 17.539C50.1751 17.8621 49.3121 18.0231 48.4425 18.0127C46.9972 17.997 45.5915 17.541 44.4152 16.7065C40.643 13.9191 36.7019 12.3559 31.8843 12.3559C21.5484 12.3559 14.1009 20.8822 14.1009 31.3287V31.5C14.1009 41.9429 21.3723 50.6441 31.8843 50.6441C37.5749 50.6441 41.3436 48.906 45.1984 45.8581C45.8246 45.3265 46.5504 44.9231 47.3342 44.6712C48.1179 44.4193 48.944 44.3238 49.765 44.3904C50.586 44.4568 51.3856 44.684 52.1179 45.0587C52.8502 45.4334 53.5007 45.9482 54.0319 46.5736C54.5632 47.199 54.9647 47.9226 55.2133 48.7027C55.462 49.4828 55.5529 50.3041 55.4809 51.1193C55.4088 51.9344 55.1752 52.7274 54.7935 53.4525C54.4117 54.1777 53.8894 54.8207 53.2566 55.3445C47.7384 60.1305 41.2573 63 31.446 63C13.4004 63 0 49.1666 0 31.6749Z" fill="#CEDFD7"/>
<path d="M122.439 7.22005C122.48 5.46966 123.209 3.80457 124.469 2.58089C125.73 1.35722 127.422 0.672119 129.185 0.672119C130.947 0.672119 132.639 1.35722 133.9 2.58089C135.16 3.80457 135.889 5.46966 135.93 7.22005V55.7799C135.889 57.5303 135.16 59.1953 133.9 60.419C132.639 61.6427 130.947 62.3278 129.185 62.3278C127.422 62.3278 125.73 61.6427 124.469 60.419C123.209 59.1953 122.48 57.5303 122.439 55.7799V7.22005Z" fill="#CEDFD7"/>
<path d="M146.937 55.5157C146.146 54.9315 145.503 54.1708 145.061 53.295C144.619 52.4191 144.391 51.4524 144.394 50.4727C144.392 49.6535 144.555 48.8421 144.872 48.086C145.19 47.3299 145.656 46.6443 146.243 46.0692C146.831 45.494 147.528 45.0409 148.293 44.7362C149.059 44.4316 149.878 44.2815 150.702 44.2948C152.085 44.2805 153.436 44.7071 154.557 45.5118C159.199 48.9059 164.282 50.9938 170.235 50.9938C175.753 50.9938 179.084 48.8167 179.084 45.2513V45.0764C179.084 41.6823 176.982 39.9442 166.732 37.3317C154.381 34.1981 146.409 30.804 146.409 18.7086V18.5337C146.409 7.46984 155.347 0.174805 167.871 0.174805C175.319 0.174805 181.785 2.08779 187.318 5.56756C188.481 6.27734 189.379 7.34648 189.872 8.61123C190.366 9.87598 190.429 11.2666 190.051 12.5701C189.673 13.8736 188.875 15.0181 187.78 15.8284C186.685 16.6386 185.353 17.0699 183.988 17.0562C182.781 17.0583 181.599 16.7271 180.571 16.0997C176.105 13.4872 171.898 12.0096 167.695 12.0096C162.529 12.0096 159.813 14.358 159.813 17.3167V17.488C159.813 21.4889 162.443 22.7951 173.041 25.4933C185.478 28.7054 192.484 33.1524 192.484 43.7666V43.9415C192.484 56.0368 183.201 62.825 169.973 62.825C161.715 62.8371 153.659 60.2812 146.937 55.5157Z" fill="#CEDFD7"/>
<path d="M87.3574 62.2863C69.786 62.2863 56.8203 49.8197 56.8203 31.7213V31.5001C56.8024 14.633 68.6974 0.713867 85.7191 0.713867C105.263 0.713867 113.885 16.935 113.885 29.1838C113.885 34.0376 110.501 37.239 106.136 37.239H73.2888C74.9234 44.8553 80.1614 48.824 87.5801 48.824C91.8474 48.8599 96.0015 47.4612 99.3674 44.8553C100.51 43.9531 101.94 43.4871 103.398 43.5419C107.109 43.5419 109.84 46.3971 109.84 50.1588C109.848 51.093 109.658 52.0183 109.281 52.8744C108.905 53.7305 108.351 54.4981 107.656 55.1269C102.525 59.5274 95.8682 62.2863 87.3574 62.2863ZM98.0525 26.7676C97.0681 19.2727 92.6888 14.1761 85.7191 14.1761C78.8465 14.1761 74.3666 19.1442 73.0624 26.7676H98.0525Z" fill="#CEDFD7"/>
<path d="M206.552 8.86891V8.83679C206.552 5.74247 208.88 3.17993 212.121 3.17993C213.566 3.14225 214.971 3.6527 216.051 4.60753C216.127 4.66782 216.189 4.7437 216.232 4.82996C216.275 4.91622 216.299 5.0108 216.303 5.10719C216.296 5.26913 216.227 5.42242 216.11 5.53535C215.993 5.64828 215.837 5.71221 215.674 5.71392C215.527 5.70805 215.384 5.65968 215.264 5.57472C214.415 4.76415 213.28 4.31581 212.103 4.32557C209.667 4.32557 207.842 6.29209 207.842 8.80824V8.84036C207.842 11.3708 209.681 13.3551 212.103 13.3551C212.71 13.3636 213.312 13.2504 213.874 13.0223C214.435 12.7942 214.945 12.4558 215.372 12.0275C215.476 11.92 215.618 11.8572 215.767 11.8526C215.924 11.8588 216.073 11.9237 216.183 12.0343C216.294 12.1448 216.358 12.2928 216.364 12.4486C216.363 12.5316 216.345 12.6135 216.309 12.6886C216.274 12.7638 216.223 12.8304 216.159 12.884C215.621 13.4105 214.981 13.824 214.279 14.0999C213.577 14.3758 212.826 14.5085 212.07 14.4901C208.895 14.4901 206.552 12.0061 206.552 8.86891Z" fill="#CEDFD7"/>
<path d="M218.699 13.6801V3.99379C218.699 3.83059 218.763 3.67385 218.878 3.55712C218.993 3.44039 219.149 3.37295 219.313 3.36922H226.139C226.217 3.36303 226.296 3.37297 226.37 3.39841C226.444 3.42385 226.512 3.46425 226.569 3.51705C226.627 3.56985 226.673 3.63392 226.704 3.70522C226.736 3.77652 226.752 3.8535 226.752 3.93133C226.752 4.00916 226.736 4.08615 226.704 4.15745C226.673 4.22875 226.627 4.29282 226.569 4.34562C226.512 4.39842 226.444 4.43881 226.37 4.46426C226.296 4.4897 226.217 4.49964 226.139 4.49345H219.942V8.22663H225.446C225.596 8.22849 225.738 8.28862 225.844 8.39407C225.949 8.49952 226.009 8.64187 226.01 8.79053C226.01 8.86411 225.995 8.93698 225.967 9.00496C225.939 9.07294 225.897 9.13471 225.845 9.18674C225.792 9.23878 225.73 9.28005 225.662 9.30821C225.593 9.33637 225.52 9.35086 225.446 9.35086H219.942V13.1804H226.229C226.307 13.1742 226.386 13.1842 226.46 13.2096C226.534 13.235 226.602 13.2754 226.659 13.3282C226.717 13.381 226.763 13.4451 226.794 13.5164C226.826 13.5877 226.842 13.6647 226.842 13.7425C226.842 13.8203 226.826 13.8973 226.794 13.9686C226.763 14.0399 226.717 14.104 226.659 14.1568C226.602 14.2096 226.534 14.25 226.46 14.2754C226.386 14.3009 226.307 14.3108 226.229 14.3046H219.313C219.149 14.3009 218.993 14.2335 218.878 14.1167C218.763 14 218.699 13.8433 218.699 13.6801Z" fill="#CEDFD7"/>
<path d="M228.995 3.92597C228.999 3.76559 229.065 3.61286 229.18 3.49975C229.294 3.38665 229.448 3.32197 229.61 3.31924H229.782C229.909 3.32191 230.032 3.35596 230.142 3.41829C230.252 3.48063 230.344 3.56927 230.411 3.67614L237.111 12.1347V3.90099C237.105 3.81812 237.115 3.73482 237.143 3.65633C237.171 3.57783 237.214 3.50583 237.271 3.44485C237.328 3.38386 237.397 3.3352 237.473 3.30192C237.55 3.26864 237.633 3.25146 237.716 3.25146C237.8 3.25146 237.883 3.26864 237.959 3.30192C238.036 3.3352 238.105 3.38386 238.162 3.44485C238.219 3.50583 238.262 3.57783 238.29 3.65633C238.317 3.73482 238.328 3.81812 238.322 3.90099V13.7728C238.325 13.8483 238.312 13.9237 238.285 13.9942C238.258 14.0647 238.216 14.129 238.163 14.1831C238.11 14.2371 238.046 14.2799 237.976 14.3088C237.906 14.3377 237.83 14.352 237.754 14.351H237.693C237.564 14.3409 237.439 14.3019 237.327 14.237C237.215 14.1721 237.119 14.083 237.046 13.9763L230.22 5.30717V13.7728C230.227 13.8557 230.216 13.939 230.189 14.0175C230.161 14.096 230.117 14.168 230.061 14.229C230.004 14.29 229.935 14.3386 229.858 14.3719C229.782 14.4052 229.699 14.4224 229.615 14.4224C229.531 14.4224 229.449 14.4052 229.372 14.3719C229.295 14.3386 229.226 14.29 229.17 14.229C229.113 14.168 229.069 14.096 229.042 14.0175C229.014 13.939 229.003 13.8557 229.01 13.7728L228.995 3.92597Z" fill="#CEDFD7"/>
<path d="M244.185 4.50765H240.991C240.84 4.50863 240.694 4.45047 240.585 4.34568C240.476 4.24089 240.413 4.09785 240.409 3.94732C240.412 3.79484 240.474 3.64937 240.583 3.54153C240.691 3.43369 240.838 3.37189 240.991 3.36914H248.633C248.786 3.37099 248.933 3.4325 249.042 3.54053C249.151 3.64856 249.213 3.79455 249.215 3.94732C249.212 4.09815 249.149 4.24174 249.04 4.34672C248.931 4.45171 248.784 4.50956 248.633 4.50765H245.442V13.7549C245.442 13.9206 245.376 14.0794 245.258 14.1966C245.14 14.3137 244.98 14.3795 244.814 14.3795C244.647 14.3795 244.487 14.3137 244.369 14.1966C244.251 14.0794 244.185 13.9206 244.185 13.7549V4.50765Z" fill="#CEDFD7"/>
<path d="M251.32 3.99372C251.32 3.83051 251.384 3.67378 251.499 3.55705C251.614 3.44032 251.77 3.37287 251.934 3.36914H256.055C257.406 3.36914 258.491 3.77601 259.184 4.46125C259.74 5.03611 260.044 5.80573 260.032 6.60266V6.63478C260.032 8.41928 258.807 9.48998 257.093 9.80405L259.827 13.3052C259.951 13.4247 260.024 13.5869 260.032 13.7585C260.023 13.9199 259.953 14.0722 259.837 14.1852C259.72 14.2982 259.566 14.3637 259.403 14.3688C259.286 14.3651 259.173 14.3333 259.071 14.2761C258.97 14.2189 258.884 14.138 258.821 14.0405L255.724 10.0396H252.559V13.7549C252.559 13.9187 252.494 14.0757 252.377 14.1915C252.261 14.3073 252.103 14.3724 251.938 14.3724C251.773 14.3724 251.615 14.3073 251.498 14.1915C251.382 14.0757 251.316 13.9187 251.316 13.7549L251.32 3.99372ZM255.943 8.94392C257.596 8.94392 258.774 8.10164 258.774 6.69545V6.66333C258.774 5.32138 257.736 4.52193 255.961 4.52193H252.559V8.94392H255.943Z" fill="#CEDFD7"/>
<path d="M262.004 8.8691V8.83698C261.988 8.09399 262.123 7.3554 262.401 6.66519C262.678 5.97499 263.092 5.34729 263.619 4.81946C264.145 4.29164 264.774 3.87449 265.466 3.59285C266.158 3.31121 266.9 3.17085 267.648 3.18012C270.997 3.18012 273.246 5.78906 273.246 8.80486V8.83698C273.261 9.57955 273.125 10.3175 272.847 11.0071C272.57 11.6967 272.155 12.3237 271.629 12.8511C271.102 13.3784 270.475 13.7953 269.783 14.0769C269.091 14.3584 268.349 14.499 267.602 14.4903C264.253 14.4903 262.004 11.8813 262.004 8.8691ZM271.942 8.8691V8.83698C271.942 6.33868 270.117 4.3222 267.602 4.3222C265.087 4.3222 263.291 6.32084 263.291 8.80486V8.83698C263.291 11.3353 265.116 13.3518 267.634 13.3518C270.152 13.3518 271.96 11.3496 271.96 8.8691H271.942Z" fill="#CEDFD7"/>
<path d="M280.582 3.99372C280.582 3.83051 280.646 3.67378 280.761 3.55705C280.875 3.44032 281.032 3.37287 281.196 3.36914H284.404C287.864 3.36914 290.253 5.72825 290.253 8.80473V8.83685C290.253 11.9133 287.864 14.3046 284.404 14.3046H281.196C281.032 14.3008 280.875 14.2334 280.761 14.1167C280.646 13.9999 280.582 13.8432 280.582 13.68V3.99372ZM284.404 13.1625C287.185 13.1625 288.963 11.2888 288.963 8.87968V8.84756C288.963 6.42421 287.185 4.51836 284.404 4.51836H281.825V13.1625H284.404Z" fill="#CEDFD7"/>
<path d="M292.829 13.6801V3.99379C292.828 3.83092 292.891 3.67418 293.005 3.55735C293.12 3.44052 293.275 3.37296 293.439 3.36922H300.265C300.343 3.36303 300.422 3.37297 300.496 3.39841C300.57 3.42385 300.638 3.46425 300.696 3.51705C300.753 3.56985 300.799 3.63392 300.83 3.70522C300.862 3.77652 300.878 3.8535 300.878 3.93133C300.878 4.00916 300.862 4.08615 300.83 4.15745C300.799 4.22875 300.753 4.29282 300.696 4.34562C300.638 4.39842 300.57 4.43881 300.496 4.46426C300.422 4.4897 300.343 4.49964 300.265 4.49345H294.068V8.22663H299.572C299.722 8.22848 299.865 8.28848 299.971 8.39384C300.077 8.49919 300.138 8.64155 300.14 8.79053C300.14 8.86441 300.125 8.93757 300.096 9.00579C300.068 9.074 300.026 9.13593 299.973 9.18801C299.92 9.24009 299.858 9.28129 299.789 9.30924C299.72 9.33719 299.646 9.35133 299.572 9.35086H294.068V13.1804H300.359C300.437 13.1742 300.515 13.1842 300.589 13.2096C300.663 13.235 300.731 13.2754 300.789 13.3282C300.847 13.381 300.892 13.4451 300.924 13.5164C300.955 13.5877 300.971 13.6647 300.971 13.7425C300.971 13.8203 300.955 13.8973 300.924 13.9686C300.892 14.0399 300.847 14.104 300.789 14.1568C300.731 14.2096 300.663 14.25 300.589 14.2754C300.515 14.3009 300.437 14.3108 300.359 14.3046H293.439C293.275 14.3009 293.12 14.2333 293.005 14.1165C292.891 13.9997 292.828 13.8429 292.829 13.6801Z" fill="#CEDFD7"/>
<path d="M308.079 13.6801V3.99379C308.078 3.83092 308.142 3.67418 308.256 3.55735C308.37 3.44052 308.526 3.37296 308.69 3.36922H315.516C315.594 3.36303 315.672 3.37297 315.746 3.39841C315.82 3.42385 315.888 3.46425 315.946 3.51705C316.003 3.56985 316.049 3.63392 316.081 3.70522C316.112 3.77652 316.128 3.8535 316.128 3.93133C316.128 4.00916 316.112 4.08615 316.081 4.15745C316.049 4.22875 316.003 4.29282 315.946 4.34562C315.888 4.39842 315.82 4.43881 315.746 4.46426C315.672 4.4897 315.594 4.49964 315.516 4.49345H309.322V8.22663H314.826C314.976 8.22848 315.119 8.28848 315.225 8.39384C315.331 8.49919 315.392 8.64155 315.394 8.79053C315.394 8.86441 315.379 8.93757 315.35 9.00579C315.322 9.074 315.28 9.13593 315.227 9.18801C315.174 9.24009 315.112 9.28129 315.043 9.30924C314.974 9.33719 314.9 9.35133 314.826 9.35086H309.322V13.1804H315.609C315.687 13.1742 315.766 13.1842 315.84 13.2096C315.914 13.235 315.982 13.2754 316.039 13.3282C316.097 13.381 316.143 13.4451 316.174 13.5164C316.206 13.5877 316.222 13.6647 316.222 13.7425C316.222 13.8203 316.206 13.8973 316.174 13.9686C316.143 14.0399 316.097 14.104 316.039 14.1568C315.982 14.2096 315.914 14.25 315.84 14.2754C315.766 14.3009 315.687 14.3108 315.609 14.3046H308.69C308.526 14.3009 308.37 14.2333 308.256 14.1165C308.142 13.9997 308.078 13.8429 308.079 13.6801Z" fill="#CEDFD7"/>
<path d="M318.085 12.9911C318.01 12.9384 317.949 12.8683 317.907 12.7867C317.866 12.7052 317.845 12.6148 317.848 12.5235C317.846 12.4442 317.861 12.3654 317.89 12.2916C317.919 12.2179 317.963 12.1507 318.019 12.0939C318.075 12.0371 318.142 11.9919 318.215 11.9609C318.289 11.9299 318.368 11.9137 318.448 11.9132C318.586 11.912 318.721 11.9615 318.825 12.0524C319.774 12.9097 321.016 13.3744 322.299 13.3516C323.775 13.3516 324.752 12.5699 324.752 11.4921V11.46C324.752 10.4464 324.203 9.86821 321.878 9.38283C319.364 8.83677 318.185 8.02304 318.185 6.22783V6.19571C318.185 4.47902 319.709 3.21203 321.799 3.21203C323.056 3.16918 324.29 3.54618 325.306 4.28273C325.387 4.3392 325.454 4.41385 325.5 4.50065C325.547 4.58744 325.573 4.68395 325.575 4.78239C325.575 4.93985 325.512 5.09091 325.401 5.20258C325.289 5.31426 325.137 5.37747 324.979 5.37841C324.85 5.38205 324.724 5.34314 324.62 5.26777C323.805 4.64353 322.803 4.30809 321.774 4.31485C320.337 4.31485 319.432 5.09646 319.432 6.07793V6.11006C319.432 7.1415 319.996 7.71967 322.417 8.23361C324.839 8.74755 326.01 9.66121 326.01 11.3279V11.3601C326.01 13.2338 324.436 14.4508 322.252 14.4508C320.733 14.4673 319.257 13.9503 318.085 12.9911Z" fill="#CEDFD7"/>
<path d="M331.309 4.50765H328.115C327.963 4.50863 327.817 4.45047 327.708 4.34568C327.6 4.24089 327.536 4.09785 327.533 3.94732C327.535 3.79484 327.598 3.64937 327.706 3.54153C327.815 3.43369 327.961 3.37189 328.115 3.36914H335.76C335.913 3.37191 336.059 3.43383 336.167 3.54176C336.275 3.6497 336.336 3.79516 336.338 3.94732C336.335 4.09752 336.273 4.24057 336.165 4.34546C336.056 4.45034 335.911 4.50862 335.76 4.50765H332.566V13.7549C332.566 13.9206 332.5 14.0794 332.382 14.1966C332.264 14.3137 332.104 14.3795 331.937 14.3795C331.77 14.3795 331.611 14.3137 331.493 14.1966C331.375 14.0794 331.309 13.9206 331.309 13.7549V4.50765Z" fill="#CEDFD7"/>
<path d="M338.361 9.72541V3.92579C338.361 3.76203 338.427 3.60498 338.543 3.48919C338.66 3.3734 338.818 3.30835 338.983 3.30835C339.147 3.30835 339.306 3.3734 339.422 3.48919C339.539 3.60498 339.604 3.76203 339.604 3.92579V9.63619C339.604 11.9953 340.876 13.323 342.967 13.323C344.997 13.323 346.286 12.1059 346.286 9.7147V3.92579C346.286 3.76203 346.352 3.60498 346.468 3.48919C346.585 3.3734 346.743 3.30835 346.908 3.30835C347.073 3.30835 347.231 3.3734 347.347 3.48919C347.464 3.60498 347.529 3.76203 347.529 3.92579V9.63619C347.529 12.8233 345.69 14.4793 342.938 14.4793C340.186 14.4793 338.361 12.8197 338.361 9.72541Z" fill="#CEDFD7"/>
<path d="M350.594 3.99372C350.594 3.83051 350.658 3.67378 350.773 3.55705C350.888 3.44032 351.044 3.37287 351.208 3.36914H354.417C357.876 3.36914 360.265 5.72825 360.265 8.80473V8.83685C360.265 11.9133 357.876 14.3046 354.417 14.3046H351.208C351.044 14.3008 350.888 14.2334 350.773 14.1167C350.658 13.9999 350.594 13.8432 350.594 13.68V3.99372ZM354.417 13.1625C357.201 13.1625 358.976 11.2888 358.976 8.87968V8.84756C358.976 6.42421 357.201 4.51836 354.417 4.51836H351.837V13.1625H354.417Z" fill="#CEDFD7"/>
<path d="M362.938 3.92579C362.938 3.76203 363.003 3.60498 363.12 3.48919C363.237 3.3734 363.395 3.30835 363.56 3.30835C363.724 3.30835 363.882 3.3734 363.999 3.48919C364.116 3.60498 364.181 3.76203 364.181 3.92579V13.7548C364.181 13.9186 364.116 14.0756 363.999 14.1914C363.882 14.3072 363.724 14.3722 363.56 14.3722C363.395 14.3722 363.237 14.3072 363.12 14.1914C363.003 14.0756 362.938 13.9186 362.938 13.7548V3.92579Z" fill="#CEDFD7"/>
<path d="M366.822 8.86915V8.83703C366.806 8.09538 366.941 7.3582 367.217 6.66918C367.494 5.98016 367.907 5.35331 368.432 4.82578C368.957 4.29826 369.583 3.88079 370.274 3.59812C370.964 3.31545 371.704 3.17332 372.451 3.18017C375.799 3.18017 378.048 5.78911 378.048 8.80491V8.83703C378.063 9.57839 377.928 10.3152 377.651 11.0038C377.375 11.6924 376.961 12.3188 376.437 12.846C375.912 13.3731 375.286 13.7902 374.595 14.0727C373.905 14.3551 373.165 14.4972 372.419 14.4903C369.07 14.4903 366.822 11.8814 366.822 8.86915ZM376.759 8.86915V8.83703C376.759 6.33873 374.937 4.32225 372.419 4.32225C369.9 4.32225 368.108 6.32089 368.108 8.80491V8.83703C368.108 11.3353 369.933 13.3518 372.447 13.3518C374.962 13.3518 376.759 11.3496 376.759 8.86915Z" fill="#CEDFD7"/>
<path d="M380.075 12.9911C380 12.9384 379.939 12.8683 379.898 12.7867C379.856 12.7052 379.836 12.6148 379.838 12.5235C379.836 12.4442 379.851 12.3654 379.88 12.2916C379.91 12.2179 379.954 12.1507 380.009 12.0939C380.065 12.0371 380.132 11.9919 380.205 11.9609C380.279 11.9299 380.358 11.9137 380.438 11.9132C380.57 11.9163 380.697 11.9656 380.797 12.0524C381.746 12.9097 382.989 13.3744 384.271 13.3516C385.751 13.3516 386.725 12.5699 386.725 11.4921V11.46C386.725 10.4464 386.175 9.86821 383.851 9.38283C381.336 8.83677 380.158 8.02304 380.158 6.22783V6.19571C380.158 4.47902 381.681 3.21203 383.772 3.21203C385.028 3.16918 386.263 3.54618 387.278 4.28273C387.359 4.3398 387.425 4.41458 387.472 4.50124C387.518 4.58791 387.544 4.68412 387.548 4.78239C387.548 4.93985 387.485 5.09091 387.373 5.20258C387.261 5.31426 387.11 5.37747 386.951 5.37841C386.822 5.3826 386.696 5.34363 386.592 5.26777C385.777 4.64353 384.775 4.30809 383.747 4.31485C382.31 4.31485 381.401 5.09646 381.401 6.07793V6.11006C381.401 7.1415 381.968 7.71967 384.39 8.23361C386.811 8.74755 387.982 9.66121 387.982 11.3279V11.3601C387.982 13.2338 386.409 14.4508 384.224 14.4508C382.712 14.4631 381.243 13.9464 380.075 12.9911Z" fill="#CEDFD7"/>
<path d="M207.149 20.8359C207.149 20.6722 207.215 20.5151 207.331 20.3993C207.448 20.2836 207.606 20.2185 207.771 20.2185C207.936 20.2185 208.094 20.2836 208.21 20.3993C208.327 20.5151 208.392 20.6722 208.392 20.8359V30.6935C208.392 30.8573 208.327 31.0143 208.21 31.1301C208.094 31.2459 207.936 31.311 207.771 31.311C207.606 31.311 207.448 31.2459 207.331 31.1301C207.215 31.0143 207.149 30.8573 207.149 30.6935V20.8359Z" fill="#CEDFD7"/>
<path d="M211.625 20.8538C211.628 20.6928 211.694 20.5391 211.808 20.4253C211.923 20.3114 212.078 20.2462 212.24 20.2435H212.412C212.538 20.2461 212.662 20.2802 212.772 20.3425C212.882 20.4049 212.974 20.4935 213.041 20.6004L219.723 29.066V20.8216C219.717 20.7388 219.727 20.6555 219.755 20.577C219.782 20.4985 219.826 20.4265 219.883 20.3655C219.94 20.3045 220.009 20.2559 220.085 20.2226C220.162 20.1893 220.245 20.1721 220.328 20.1721C220.412 20.1721 220.495 20.1893 220.571 20.2226C220.648 20.2559 220.717 20.3045 220.774 20.3655C220.831 20.4265 220.874 20.4985 220.902 20.577C220.929 20.6555 220.94 20.7388 220.934 20.8216V30.6935C220.937 30.769 220.924 30.8443 220.897 30.9148C220.869 30.9853 220.828 31.0496 220.775 31.1037C220.722 31.1578 220.658 31.2006 220.588 31.2295C220.518 31.2583 220.442 31.2727 220.366 31.2717H220.305C220.176 31.2618 220.05 31.2229 219.938 31.158C219.826 31.0931 219.731 31.0038 219.658 30.8969L212.832 22.2278V30.6935C212.839 30.7764 212.828 30.8597 212.8 30.9382C212.773 31.0167 212.729 31.0887 212.673 31.1496C212.616 31.2106 212.547 31.2593 212.47 31.2926C212.393 31.3258 212.311 31.343 212.227 31.343C212.143 31.343 212.061 31.3258 211.984 31.2926C211.907 31.2593 211.838 31.2106 211.782 31.1496C211.725 31.0887 211.681 31.0167 211.654 30.9382C211.626 30.8597 211.615 30.7764 211.622 30.6935L211.625 20.8538Z" fill="#CEDFD7"/>
<path d="M226.811 21.4139H223.621C223.469 21.4158 223.323 21.358 223.213 21.253C223.104 21.148 223.042 21.0044 223.039 20.8536C223.042 20.7011 223.104 20.5556 223.212 20.4478C223.321 20.3399 223.467 20.2781 223.621 20.2754H231.262C231.416 20.2772 231.563 20.3388 231.672 20.4468C231.78 20.5548 231.842 20.7008 231.844 20.8536C231.841 21.0044 231.779 21.148 231.67 21.253C231.56 21.358 231.414 21.4158 231.262 21.4139H228.072V30.6933C228.079 30.7795 228.067 30.8662 228.038 30.9478C228.01 31.0295 227.964 31.1043 227.905 31.1677C227.846 31.2311 227.774 31.2817 227.694 31.3163C227.615 31.3509 227.529 31.3688 227.442 31.3688C227.354 31.3688 227.268 31.3509 227.189 31.3163C227.109 31.2817 227.037 31.2311 226.978 31.1677C226.919 31.1043 226.873 31.0295 226.845 30.9478C226.816 30.8662 226.804 30.7795 226.811 30.6933V21.4139Z" fill="#CEDFD7"/>
<path d="M233.949 30.6006V20.9144C233.949 20.7512 234.014 20.5944 234.129 20.4777C234.243 20.361 234.4 20.2935 234.564 20.2898H241.39C241.533 20.2963 241.668 20.3563 241.769 20.4578C241.869 20.5593 241.927 20.6947 241.931 20.837C241.935 20.9793 241.885 21.1178 241.791 21.2248C241.696 21.3318 241.565 21.3994 241.422 21.414H235.192V25.1472H240.704C240.85 25.1508 240.989 25.2097 241.092 25.3119C241.196 25.4142 241.256 25.5519 241.26 25.6968C241.262 25.771 241.249 25.8448 241.222 25.914C241.195 25.9832 241.155 26.0463 241.103 26.0998C241.051 26.1532 240.989 26.1959 240.921 26.2254C240.852 26.2549 240.778 26.2705 240.704 26.2714H235.192V30.101H241.483C241.625 30.1122 241.758 30.1764 241.855 30.2805C241.952 30.3847 242.006 30.5213 242.006 30.6631C242.006 30.8049 241.952 30.9415 241.855 31.0457C241.758 31.1498 241.625 31.2139 241.483 31.2252H234.564C234.4 31.2215 234.243 31.154 234.129 31.0373C234.014 30.9206 233.949 30.7638 233.949 30.6006Z" fill="#CEDFD7"/>
<path d="M244.246 20.9144C244.246 20.7512 244.31 20.5944 244.425 20.4777C244.54 20.361 244.696 20.2935 244.86 20.2898H248.966C250.317 20.2898 251.402 20.6967 252.096 21.3819C252.651 21.9568 252.956 22.7264 252.943 23.5233V23.5554C252.943 25.3399 251.718 26.4106 250.005 26.7247L252.739 30.2259C252.863 30.3454 252.936 30.5076 252.943 30.6792C252.935 30.8406 252.865 30.9928 252.749 31.1058C252.632 31.2188 252.477 31.2843 252.315 31.2895C252.198 31.2857 252.084 31.2539 251.983 31.1967C251.882 31.1395 251.796 31.0586 251.733 30.9611L248.636 26.9603H245.474V30.6934C245.474 30.8572 245.409 31.0142 245.292 31.13C245.176 31.2458 245.018 31.3109 244.853 31.3109C244.688 31.3109 244.53 31.2458 244.413 31.13C244.297 31.0142 244.231 30.8572 244.231 30.6934L244.246 20.9144ZM248.869 25.8646C250.522 25.8646 251.7 25.0223 251.7 23.6161V23.5876C251.7 22.242 250.662 21.4283 248.887 21.4283H245.489V25.8646H248.869Z" fill="#CEDFD7"/>
<path d="M255.649 20.9144C255.649 20.7512 255.713 20.5944 255.828 20.4777C255.943 20.361 256.099 20.2935 256.264 20.2898H259.472C262.931 20.2898 265.32 22.6489 265.32 25.7254V25.7575C265.32 28.834 262.931 31.2252 259.472 31.2252H256.264C256.099 31.2215 255.943 31.154 255.828 31.0373C255.713 30.9206 255.649 30.7638 255.649 30.6006V20.9144ZM259.472 30.0831C262.252 30.0831 264.031 28.2094 264.031 25.8003V25.7682C264.031 23.3342 262.26 21.414 259.472 21.414H256.892V30.0831H259.472Z" fill="#CEDFD7"/>
<path d="M268.007 20.8359C268.007 20.6722 268.073 20.5151 268.189 20.3993C268.306 20.2836 268.464 20.2185 268.629 20.2185C268.794 20.2185 268.952 20.2836 269.068 20.3993C269.185 20.5151 269.25 20.6722 269.25 20.8359V30.6935C269.25 30.8573 269.185 31.0143 269.068 31.1301C268.952 31.2459 268.794 31.311 268.629 31.311C268.464 31.311 268.306 31.2459 268.189 31.1301C268.073 31.0143 268.007 30.8573 268.007 30.6935V20.8359Z" fill="#CEDFD7"/>
<path d="M272.009 29.9117C271.934 29.8598 271.872 29.7897 271.831 29.708C271.789 29.6264 271.769 29.5356 271.772 29.4442C271.771 29.3652 271.785 29.2866 271.814 29.2131C271.844 29.1396 271.887 29.0725 271.943 29.0158C271.998 28.9591 272.064 28.9138 272.137 28.8826C272.21 28.8514 272.289 28.8348 272.369 28.8339C272.507 28.832 272.642 28.8816 272.746 28.9731C273.696 29.8312 274.94 30.296 276.224 30.2722C277.7 30.2722 278.677 29.4906 278.677 28.4128V28.3806C278.677 27.367 278.124 26.7889 275.803 26.3035C273.27 25.7574 272.106 24.9437 272.106 23.1485V23.1164C272.106 21.3997 273.633 20.1327 275.724 20.1327C276.981 20.0898 278.215 20.4668 279.231 21.2034C279.311 21.2606 279.376 21.3355 279.422 21.4222C279.469 21.5089 279.494 21.605 279.496 21.703C279.497 21.7811 279.482 21.8586 279.452 21.9309C279.422 22.0032 279.378 22.0689 279.323 22.1243C279.268 22.1797 279.202 22.2236 279.129 22.2536C279.056 22.2836 278.979 22.2991 278.9 22.2991C278.771 22.3022 278.645 22.2633 278.541 22.1884C277.726 21.5637 276.724 21.2282 275.695 21.2355C274.258 21.2355 273.353 22.0171 273.353 22.9986V23.0307C273.353 24.0622 273.921 24.6403 276.342 25.1721C278.764 25.7039 279.935 26.5997 279.935 28.2629V28.295C279.935 30.1687 278.361 31.3857 276.177 31.3857C274.656 31.3995 273.179 30.8772 272.009 29.9117Z" fill="#CEDFD7"/>
<path d="M281.81 25.7894V25.7573C281.81 22.663 284.138 20.1004 287.375 20.1004C288.82 20.0617 290.226 20.5723 291.305 21.528C291.382 21.5878 291.444 21.6635 291.488 21.7498C291.533 21.8361 291.557 21.931 291.56 22.0277C291.553 22.19 291.483 22.3433 291.366 22.4561C291.248 22.569 291.092 22.6328 290.928 22.6344C290.782 22.6302 290.64 22.5817 290.522 22.4952C289.672 21.6853 288.538 21.2371 287.361 21.2461C284.925 21.2425 283.096 23.1983 283.096 25.7252V25.7573C283.096 28.2877 284.936 30.2721 287.357 30.2721C287.966 30.2825 288.571 30.1702 289.136 29.942C289.7 29.7139 290.212 29.3745 290.641 28.9444C290.744 28.8369 290.886 28.7741 291.036 28.7696C291.193 28.7758 291.341 28.8407 291.452 28.9512C291.562 29.0618 291.627 29.2098 291.632 29.3656C291.632 29.4485 291.613 29.5304 291.578 29.6056C291.542 29.6807 291.491 29.7474 291.427 29.801C290.888 30.3284 290.247 30.7425 289.542 31.0184C288.838 31.2944 288.085 31.4265 287.328 31.407C284.152 31.407 281.81 28.9266 281.81 25.7894Z" fill="#CEDFD7"/>
<path d="M294.011 20.8359C294.011 20.6722 294.076 20.5151 294.193 20.3993C294.309 20.2836 294.467 20.2185 294.632 20.2185C294.797 20.2185 294.955 20.2836 295.072 20.3993C295.188 20.5151 295.254 20.6722 295.254 20.8359V30.6935C295.254 30.8573 295.188 31.0143 295.072 31.1301C294.955 31.2459 294.797 31.311 294.632 31.311C294.467 31.311 294.309 31.2459 294.193 31.1301C294.076 31.0143 294.011 30.8573 294.011 30.6935V20.8359Z" fill="#CEDFD7"/>
<path d="M298.483 20.9144C298.483 20.7512 298.548 20.5944 298.662 20.4777C298.777 20.361 298.933 20.2935 299.098 20.2898H302.604C305.09 20.2898 306.725 21.6032 306.725 23.7589V23.7874C306.725 26.1465 304.745 27.3564 302.414 27.3564H299.741V30.6934C299.741 30.8572 299.675 31.0142 299.559 31.13C299.442 31.2458 299.284 31.3109 299.119 31.3109C298.954 31.3109 298.796 31.2458 298.68 31.13C298.563 31.0142 298.498 30.8572 298.498 30.6934L298.483 20.9144ZM302.435 26.2429C304.26 26.2429 305.457 25.2721 305.457 23.8374V23.8053C305.467 22.242 304.293 21.414 302.496 21.414H299.712V26.2429H302.435Z" fill="#CEDFD7"/>
<path d="M308.884 20.8359C308.884 20.6722 308.949 20.5151 309.066 20.3993C309.182 20.2836 309.34 20.2185 309.505 20.2185C309.67 20.2185 309.828 20.2836 309.945 20.3993C310.061 20.5151 310.127 20.6722 310.127 20.8359V30.0832H315.835C315.987 30.087 316.131 30.1496 316.236 30.2578C316.342 30.3659 316.4 30.5108 316.399 30.6614C316.4 30.7353 316.386 30.8085 316.358 30.8769C316.329 30.9453 316.288 31.0075 316.236 31.0599C316.183 31.1123 316.121 31.1539 316.052 31.1823C315.983 31.2107 315.91 31.2253 315.835 31.2253H309.498C309.334 31.2216 309.178 31.1541 309.063 31.0374C308.948 30.9207 308.884 30.7639 308.884 30.6007V20.8359Z" fill="#CEDFD7"/>
<path d="M318.544 20.8359C318.544 20.6722 318.61 20.5151 318.726 20.3993C318.843 20.2836 319.001 20.2185 319.166 20.2185C319.331 20.2185 319.489 20.2836 319.605 20.3993C319.722 20.5151 319.787 20.6722 319.787 20.8359V30.6935C319.787 30.8573 319.722 31.0143 319.605 31.1301C319.489 31.2459 319.331 31.311 319.166 31.311C319.001 31.311 318.843 31.2459 318.726 31.1301C318.61 31.0143 318.544 30.8573 318.544 30.6935V20.8359Z" fill="#CEDFD7"/>
<path d="M323.017 20.8538C323.02 20.6928 323.085 20.5391 323.2 20.4253C323.315 20.3114 323.469 20.2462 323.631 20.2435H323.804C323.93 20.2458 324.054 20.2797 324.164 20.3421C324.274 20.4045 324.366 20.4933 324.432 20.6004L331.115 29.066V20.8216C331.108 20.7388 331.119 20.6555 331.147 20.577C331.174 20.4985 331.218 20.4265 331.274 20.3655C331.331 20.3045 331.4 20.2559 331.477 20.2226C331.554 20.1893 331.636 20.1721 331.72 20.1721C331.804 20.1721 331.886 20.1893 331.963 20.2226C332.04 20.2559 332.109 20.3045 332.166 20.3655C332.222 20.4265 332.266 20.4985 332.293 20.577C332.321 20.6555 332.332 20.7388 332.325 20.8216V30.6935C332.329 30.7688 332.317 30.8441 332.29 30.9146C332.263 30.9851 332.222 31.0494 332.169 31.1035C332.116 31.1577 332.053 31.2005 331.983 31.2294C331.913 31.2584 331.837 31.2727 331.761 31.2717H331.697C331.568 31.2618 331.443 31.2229 331.332 31.1579C331.22 31.093 331.125 31.0038 331.054 30.8969L324.228 22.2278V30.6935C324.234 30.7764 324.223 30.8597 324.196 30.9382C324.168 31.0167 324.125 31.0887 324.068 31.1496C324.011 31.2106 323.942 31.2593 323.865 31.2926C323.789 31.3258 323.706 31.343 323.622 31.343C323.539 31.343 323.456 31.3258 323.379 31.2926C323.303 31.2593 323.234 31.2106 323.177 31.1496C323.12 31.0887 323.076 31.0167 323.049 30.9382C323.021 30.8597 323.011 30.7764 323.017 30.6935V20.8538Z" fill="#CEDFD7"/>
<path d="M334.564 30.4113L339.029 20.7C339.086 20.5381 339.192 20.398 339.333 20.2998C339.475 20.2017 339.644 20.1507 339.816 20.154H339.881C340.051 20.1506 340.218 20.2019 340.356 20.3003C340.495 20.3987 340.598 20.5389 340.65 20.7L345.115 30.3863C345.162 30.4837 345.188 30.5892 345.194 30.6968C345.195 30.7749 345.18 30.8523 345.15 30.9246C345.12 30.9969 345.076 31.0626 345.021 31.118C344.965 31.1734 344.9 31.2174 344.827 31.2474C344.754 31.2774 344.676 31.2928 344.598 31.2928C344.461 31.2874 344.33 31.2412 344.22 31.1604C344.111 31.0795 344.028 30.9677 343.984 30.8396L342.834 28.3413H336.798L335.649 30.886C335.608 31.0108 335.528 31.1193 335.421 31.1958C335.314 31.2722 335.184 31.3125 335.052 31.3107C334.976 31.3131 334.9 31.3001 334.828 31.2723C334.757 31.2446 334.692 31.2027 334.638 31.1493C334.583 31.0959 334.541 31.032 334.512 30.9616C334.483 30.8911 334.469 30.8156 334.47 30.7396C334.475 30.6244 334.507 30.512 334.564 30.4113ZM342.349 27.1992L339.834 21.6066L337.319 27.1992H342.349Z" fill="#CEDFD7"/>
<path d="M347.368 20.9144C347.368 20.7512 347.432 20.5944 347.547 20.4777C347.662 20.361 347.818 20.2935 347.982 20.2898H352.103C353.453 20.2898 354.538 20.6967 355.232 21.3819C355.788 21.9568 356.092 22.7264 356.08 23.5233V23.5554C356.08 25.3399 354.855 26.4106 353.141 26.7247L355.875 30.2259C355.999 30.3454 356.072 30.5076 356.08 30.6792C356.071 30.8406 356.001 30.9928 355.885 31.1058C355.768 31.2188 355.614 31.2843 355.451 31.2895C355.334 31.2857 355.22 31.2539 355.119 31.1967C355.018 31.1395 354.932 31.0586 354.869 30.9611L351.772 26.9603H348.611V30.6934C348.611 30.8572 348.545 31.0142 348.429 31.13C348.312 31.2458 348.154 31.3109 347.989 31.3109C347.824 31.3109 347.666 31.2458 347.55 31.13C347.433 31.0142 347.368 30.8572 347.368 30.6934V20.9144ZM351.991 25.8646C353.644 25.8646 354.822 25.0223 354.822 23.6161V23.5876C354.822 22.242 353.784 21.4283 352.009 21.4283H348.611V25.8646H351.991Z" fill="#CEDFD7"/>
<path d="M358.824 20.8359C358.824 20.6722 358.89 20.5151 359.007 20.3993C359.123 20.2836 359.281 20.2185 359.446 20.2185C359.611 20.2185 359.769 20.2836 359.885 20.3993C360.002 20.5151 360.068 20.6722 360.068 20.8359V30.6935C360.068 30.8573 360.002 31.0143 359.885 31.1301C359.769 31.2459 359.611 31.311 359.446 31.311C359.281 31.311 359.123 31.2459 359.007 31.1301C358.89 31.0143 358.824 30.8573 358.824 30.6935V20.8359Z" fill="#CEDFD7"/>
<path d="M362.708 25.7896V25.7574C362.693 25.0158 362.827 24.2786 363.104 23.5896C363.381 22.9006 363.794 22.2737 364.319 21.7462C364.844 21.2187 365.47 20.8012 366.16 20.5185C366.851 20.2359 367.591 20.0937 368.338 20.1006C371.686 20.1006 373.935 22.7095 373.935 25.7253V25.7574C373.95 26.4986 373.815 27.2353 373.538 27.9237C373.261 28.6121 372.848 29.2383 372.323 29.7651C371.798 30.292 371.172 30.7088 370.482 30.9909C369.792 31.2729 369.052 31.4145 368.305 31.4072C364.957 31.4072 362.708 28.8018 362.708 25.7896ZM372.649 25.7896V25.7574C372.649 23.2591 370.824 21.2427 368.305 21.2427C365.787 21.2427 363.994 23.2413 363.994 25.7253V25.7574C363.994 28.2557 365.819 30.2722 368.334 30.2722C370.849 30.2722 372.649 28.27 372.649 25.7896Z" fill="#CEDFD7"/>
<path d="M375.965 29.9117C375.889 29.8598 375.828 29.7897 375.786 29.708C375.745 29.6263 375.725 29.5356 375.728 29.4442C375.726 29.365 375.74 29.2863 375.769 29.2126C375.798 29.1388 375.842 29.0716 375.897 29.0148C375.953 28.9579 376.019 28.9127 376.092 28.8816C376.166 28.8506 376.245 28.8344 376.324 28.8339C376.457 28.8369 376.584 28.8862 376.683 28.9731C377.633 29.8312 378.878 30.296 380.161 30.2722C381.638 30.2722 382.611 29.4906 382.611 28.4128V28.3806C382.611 27.367 382.062 26.7889 379.737 26.3035C377.222 25.7574 376.04 24.9437 376.04 23.1485V23.1164C376.04 21.3997 377.567 20.1327 379.658 20.1327C380.915 20.0898 382.149 20.4668 383.165 21.2034C383.245 21.2606 383.31 21.3355 383.356 21.4222C383.403 21.5089 383.428 21.605 383.43 21.703C383.431 21.7811 383.416 21.8586 383.386 21.9309C383.356 22.0032 383.312 22.0689 383.257 22.1243C383.202 22.1797 383.136 22.2236 383.063 22.2536C382.99 22.2836 382.913 22.2991 382.834 22.2991C382.705 22.3022 382.579 22.2633 382.475 22.1884C381.66 21.5637 380.658 21.2282 379.629 21.2355C378.192 21.2355 377.287 22.0171 377.287 22.9986V23.0307C377.287 24.0621 377.855 24.6403 380.276 25.1721C382.697 25.7039 383.869 26.5997 383.869 28.2629V28.295C383.869 30.1687 382.295 31.3857 380.107 31.3857C378.595 31.3935 377.128 30.8716 375.965 29.9117Z" fill="#CEDFD7"/>
<path d="M207.041 37.8314C207.041 37.6682 207.105 37.5114 207.22 37.3947C207.335 37.278 207.491 37.2105 207.656 37.2068H211.158C213.644 37.2068 215.279 38.5202 215.279 40.6759V40.7044C215.279 43.0635 213.3 44.2734 210.968 44.2734H208.295V47.5854C208.295 47.7492 208.23 47.9062 208.113 48.022C207.996 48.1378 207.838 48.2029 207.674 48.2029C207.509 48.2029 207.351 48.1378 207.234 48.022C207.118 47.9062 207.052 47.7492 207.052 47.5854L207.041 37.8314ZM210.993 43.1599C212.818 43.1599 214.011 42.1891 214.011 40.7544V40.7223C214.011 39.159 212.832 38.3489 211.054 38.3489H208.274V43.1599H210.993Z" fill="#CEDFD7"/>
<path d="M215.85 47.332L220.315 37.6314C220.372 37.4695 220.478 37.3294 220.619 37.2312C220.761 37.1331 220.93 37.0821 221.102 37.0854H221.167C221.337 37.082 221.504 37.1333 221.642 37.2317C221.781 37.3301 221.884 37.4703 221.936 37.6314L226.401 47.3177C226.447 47.4152 226.474 47.5206 226.48 47.6282C226.481 47.7063 226.466 47.7837 226.436 47.856C226.406 47.9283 226.362 47.994 226.307 48.0494C226.252 48.1048 226.186 48.1488 226.113 48.1788C226.04 48.2088 225.963 48.2242 225.884 48.2242C225.748 48.2183 225.616 48.1719 225.507 48.0912C225.397 48.0104 225.315 47.8988 225.27 47.771L224.124 45.2727H218.07L216.92 47.8209C216.879 47.9451 216.799 48.0529 216.692 48.1286C216.584 48.2044 216.456 48.2441 216.324 48.2421C216.25 48.2421 216.176 48.2275 216.107 48.1991C216.039 48.1707 215.976 48.1291 215.924 48.0767C215.872 48.0243 215.83 47.9621 215.802 47.8937C215.774 47.8253 215.76 47.752 215.76 47.6782C215.76 47.5571 215.791 47.4379 215.85 47.332ZM223.635 44.1199L221.12 38.5272L218.605 44.1199H223.635Z" fill="#CEDFD7"/>
<path d="M228.654 37.8314C228.654 37.6682 228.718 37.5114 228.833 37.3947C228.948 37.278 229.104 37.2105 229.269 37.2068H233.389C234.74 37.2068 235.825 37.6137 236.518 38.2989C237.074 38.8738 237.379 39.6434 237.366 40.4403V40.4724C237.366 42.2569 236.141 43.3276 234.428 43.6453L237.162 47.1429C237.286 47.2624 237.359 47.4246 237.366 47.5961C237.357 47.7576 237.288 47.9098 237.172 48.0228C237.055 48.1358 236.9 48.2013 236.738 48.2064C236.621 48.2027 236.507 48.1709 236.406 48.1137C236.304 48.0565 236.219 47.9756 236.156 47.8781L233.059 43.8987H229.897V47.6033C229.897 47.767 229.832 47.9241 229.715 48.0399C229.599 48.1557 229.441 48.2207 229.276 48.2207C229.111 48.2207 228.953 48.1557 228.836 48.0399C228.72 47.9241 228.654 47.767 228.654 47.6033V37.8314ZM233.278 42.7851C234.931 42.7851 236.109 41.9393 236.109 40.5331V40.5045C236.109 39.159 235.071 38.3631 233.296 38.3631H229.897V42.7994L233.278 42.7851Z" fill="#CEDFD7"/>
<path d="M239.382 47.332L243.847 37.6314C243.903 37.4694 244.01 37.3293 244.151 37.2312C244.293 37.1331 244.462 37.082 244.634 37.0854H244.699C244.869 37.0825 245.035 37.1341 245.174 37.2324C245.312 37.3307 245.415 37.4706 245.468 37.6314L249.933 47.3177C249.979 47.4152 250.006 47.5206 250.012 47.6282C250.012 47.7863 249.949 47.9379 249.836 48.0496C249.724 48.1614 249.571 48.2242 249.412 48.2242C249.276 48.219 249.145 48.1729 249.036 48.092C248.927 48.011 248.845 47.8991 248.801 47.7709L247.652 45.2726H241.616L240.467 47.8209C240.424 47.9445 240.344 48.0516 240.237 48.1272C240.13 48.2028 240.002 48.243 239.87 48.2421C239.796 48.2425 239.722 48.2283 239.652 48.2001C239.583 48.1719 239.521 48.1304 239.468 48.0779C239.415 48.0255 239.373 47.9631 239.345 47.8945C239.317 47.8259 239.302 47.7523 239.303 47.6782C239.3 47.5581 239.327 47.4393 239.382 47.332ZM247.167 44.1199L244.652 38.5272L242.119 44.1199H247.167Z" fill="#CEDFD7"/>
<path d="M257.101 37.7564C257.101 37.5926 257.166 37.4356 257.283 37.3198C257.399 37.204 257.557 37.1389 257.722 37.1389C257.887 37.1389 258.045 37.204 258.162 37.3198C258.278 37.4356 258.344 37.5926 258.344 37.7564V47.0036H264.056C264.207 47.0074 264.351 47.07 264.457 47.1782C264.562 47.2863 264.621 47.4312 264.62 47.5818C264.62 47.6557 264.606 47.7289 264.578 47.7973C264.55 47.8657 264.508 47.9279 264.456 47.9803C264.404 48.0327 264.341 48.0743 264.273 48.1027C264.204 48.1311 264.13 48.1457 264.056 48.1457H257.715C257.551 48.142 257.394 48.0745 257.28 47.9578C257.165 47.8411 257.101 47.6843 257.101 47.5211V37.7564Z" fill="#CEDFD7"/>
<path d="M266.416 47.3323L270.881 37.6317C270.938 37.4698 271.044 37.3297 271.185 37.2316C271.327 37.1334 271.496 37.0824 271.668 37.0857H271.729C271.9 37.0815 272.068 37.1324 272.207 37.2309C272.346 37.3293 272.45 37.47 272.502 37.6317L276.967 47.318C277.013 47.4156 277.04 47.5209 277.046 47.6285C277.046 47.7866 276.983 47.9382 276.871 48.05C276.758 48.1617 276.605 48.2245 276.446 48.2245C276.31 48.2193 276.179 48.1732 276.07 48.0923C275.961 48.0113 275.879 47.8994 275.836 47.7713L274.686 45.273H268.65L267.501 47.8212C267.459 47.9451 267.379 48.0525 267.272 48.1282C267.164 48.2039 267.036 48.2439 266.904 48.2424C266.83 48.2428 266.756 48.2286 266.687 48.2004C266.618 48.1722 266.555 48.1307 266.502 48.0783C266.449 48.0258 266.407 47.9635 266.379 47.8948C266.351 47.8262 266.336 47.7527 266.337 47.6785C266.334 47.5584 266.362 47.4396 266.416 47.3323ZM274.201 44.1202L271.686 38.5276L269.153 44.1202H274.201Z" fill="#CEDFD7"/>
<path d="M283.743 46.8326C283.668 46.78 283.607 46.7098 283.566 46.6283C283.524 46.5468 283.504 46.4564 283.506 46.3651C283.504 46.2861 283.519 46.2075 283.548 46.134C283.577 46.0605 283.621 45.9934 283.676 45.9367C283.732 45.88 283.798 45.8347 283.871 45.8035C283.944 45.7723 284.023 45.7557 284.102 45.7548C284.243 45.7529 284.379 45.8039 284.483 45.8976C285.431 46.7564 286.675 47.2202 287.957 47.1931C289.434 47.1931 290.411 46.4115 290.411 45.3337V45.3015C290.411 44.2879 289.857 43.7098 287.537 43.2244C285.022 42.6783 283.84 41.8646 283.84 40.0694V40.0373C283.84 38.3206 285.367 37.0536 287.458 37.0536C288.714 37.0107 289.949 37.3877 290.964 38.1243C291.045 38.1814 291.111 38.2561 291.158 38.3428C291.204 38.4295 291.23 38.5257 291.233 38.6239C291.233 38.782 291.17 38.9336 291.058 39.0454C290.945 39.1572 290.793 39.22 290.633 39.22C290.505 39.2244 290.378 39.1854 290.274 39.1093C289.458 38.4848 288.455 38.1494 287.425 38.1564C285.988 38.1564 285.083 38.938 285.083 39.9231V39.973C285.083 41.0045 285.651 41.5826 288.072 42.1144C290.493 42.6462 291.665 43.542 291.665 45.2052V45.2373C291.665 47.111 290.091 48.3316 287.907 48.3316C286.384 48.3387 284.908 47.8074 283.743 46.8326Z" fill="#CEDFD7"/>
<path d="M293.306 47.332L297.772 37.6314C297.828 37.4695 297.934 37.3294 298.076 37.2312C298.217 37.1331 298.386 37.0821 298.559 37.0854H298.623C298.793 37.082 298.96 37.1333 299.099 37.2317C299.237 37.3301 299.34 37.4703 299.392 37.6314L303.858 47.3177C303.904 47.4152 303.93 47.5206 303.937 47.6282C303.937 47.7063 303.922 47.7837 303.892 47.856C303.863 47.9283 303.819 47.994 303.763 48.0494C303.708 48.1048 303.642 48.1488 303.569 48.1788C303.497 48.2088 303.419 48.2242 303.34 48.2242C303.204 48.2183 303.073 48.1719 302.963 48.0912C302.854 48.0104 302.771 47.8988 302.726 47.771L301.58 45.2727H295.541L294.391 47.8209C294.35 47.9451 294.27 48.0529 294.162 48.1286C294.055 48.2044 293.926 48.2441 293.795 48.2421C293.72 48.2421 293.647 48.2275 293.578 48.1991C293.509 48.1707 293.447 48.1291 293.395 48.0767C293.342 48.0243 293.301 47.9621 293.273 47.8937C293.244 47.8253 293.23 47.752 293.231 47.6782C293.226 47.5583 293.252 47.4392 293.306 47.332ZM301.091 44.1199L298.544 38.5451L296.029 44.1377L301.091 44.1199Z" fill="#CEDFD7"/>
<path d="M306.111 37.7564C306.111 37.5926 306.176 37.4356 306.293 37.3198C306.409 37.204 306.567 37.1389 306.732 37.1389C306.897 37.1389 307.055 37.204 307.172 37.3198C307.288 37.4356 307.354 37.5926 307.354 37.7564V47.0036H313.062C313.214 47.0064 313.359 47.0687 313.466 47.1769C313.572 47.2852 313.631 47.4306 313.63 47.5818C313.63 47.656 313.616 47.7295 313.588 47.7982C313.559 47.8668 313.518 47.9291 313.465 47.9816C313.412 48.0341 313.349 48.0756 313.28 48.1038C313.211 48.1319 313.137 48.1462 313.062 48.1457H306.725C306.561 48.142 306.404 48.0745 306.29 47.9578C306.175 47.8411 306.111 47.6843 306.111 47.5211V37.7564Z" fill="#CEDFD7"/>
<path d="M315.009 43.5667V37.7564C315.003 37.6716 315.014 37.5864 315.042 37.5061C315.07 37.4258 315.115 37.3522 315.173 37.2898C315.231 37.2274 315.302 37.1777 315.38 37.1436C315.459 37.1096 315.543 37.092 315.629 37.092C315.714 37.092 315.799 37.1096 315.878 37.1436C315.956 37.1777 316.027 37.2274 316.085 37.2898C316.143 37.3522 316.187 37.4258 316.216 37.5061C316.244 37.5864 316.255 37.6716 316.249 37.7564V43.4882C316.249 45.8473 317.524 47.175 319.615 47.175C321.645 47.175 322.934 45.958 322.934 43.5667V37.7564C322.928 37.6716 322.939 37.5864 322.967 37.5061C322.995 37.4258 323.04 37.3522 323.098 37.2898C323.156 37.2274 323.227 37.1777 323.305 37.1436C323.384 37.1096 323.469 37.092 323.554 37.092C323.64 37.092 323.724 37.1096 323.803 37.1436C323.881 37.1777 323.952 37.2274 324.01 37.2898C324.068 37.3522 324.113 37.4258 324.141 37.5061C324.169 37.5864 324.18 37.6716 324.174 37.7564V43.4668C324.174 46.6539 322.334 48.3099 319.583 48.3099C316.831 48.3099 315.009 46.6611 315.009 43.5667Z" fill="#CEDFD7"/>
<path d="M327.242 37.8314C327.242 37.6682 327.306 37.5114 327.421 37.3947C327.536 37.278 327.692 37.2105 327.857 37.2068H331.061C334.521 37.2068 336.913 39.5659 336.913 42.6424V42.6745C336.913 45.751 334.521 48.1422 331.061 48.1422H327.857C327.692 48.1385 327.536 48.071 327.421 47.9543C327.306 47.8376 327.242 47.6808 327.242 47.5176V37.8314ZM331.061 47.0001C333.845 47.0001 335.624 45.1264 335.624 42.7173V42.6852C335.624 40.2619 333.827 38.3596 331.061 38.3596H328.485V47.0037L331.061 47.0001Z" fill="#CEDFD7"/>
<path d="M324.274 54.3201H206.552V60.1768H324.274V54.3201Z" fill="#0083AC"/>
<path d="M387.996 54.3201H324.274V60.1768H387.996V54.3201Z" fill="#F5A766"/>
</svg>
