<svg width="121" height="40" viewBox="0 0 121 40" fill="none" xmlns="http://www.w3.org/2000/svg">
<g clip-path="url(#clip0)">
<path d="M0 20.1114V19.9989C0 9.00562 8.26001 0 20.0973 0C25.8798 0 29.789 1.54668 32.9829 3.92238C33.4971 4.32058 33.9134 4.83189 34.1997 5.41695C34.486 6.002 34.6347 6.64519 34.6342 7.29696C34.6342 9.61755 32.762 11.4398 30.4493 11.4398C29.2935 11.4398 28.5222 10.9978 27.9179 10.6108C25.5502 8.84365 23.0715 7.84927 20.0435 7.84927C13.5414 7.84927 8.86427 13.2632 8.86427 19.8943V20.0067C8.86427 26.6367 13.4349 32.162 20.0435 32.162C23.6209 32.162 25.9852 31.0574 28.4123 29.1249C29.121 28.5233 30.0177 28.1905 30.9459 28.1845C33.0927 28.1845 34.91 29.9539 34.91 32.108C34.9046 32.6881 34.7737 33.2602 34.5264 33.7846C34.279 34.309 33.921 34.7732 33.4773 35.1451C30.0087 38.1822 25.9347 40.0056 19.7666 40.0056C8.42369 40 0 31.2171 0 20.1114Z" fill="#CEDFD7"/>
<path d="M76.9688 4.58509C76.9868 3.46863 77.4416 2.40404 78.2348 1.62093C79.0281 0.837811 80.0963 0.398926 81.2092 0.398926C82.322 0.398926 83.3903 0.837811 84.1835 1.62093C84.9768 2.40404 85.4315 3.46863 85.4496 4.58509V35.4152C85.4315 36.5317 84.9768 37.5963 84.1835 38.3794C83.3903 39.1625 82.322 39.6014 81.2092 39.6014C80.0963 39.6014 79.0281 39.1625 78.2348 38.3794C77.4416 37.5963 76.9868 36.5317 76.9688 35.4152V4.58509Z" fill="#CEDFD7"/>
<path d="M92.3672 35.2487C91.4322 34.5861 90.7708 33.3713 90.7708 32.0462C90.7708 29.8347 92.5331 28.1215 94.7304 28.1215C95.5999 28.1134 96.4492 28.3846 97.1541 28.8955C100.069 31.0496 103.267 32.3758 107.011 32.3758C110.479 32.3758 112.572 30.9933 112.572 28.729V28.6165C112.572 26.4635 111.25 25.3544 104.809 23.7009C97.0476 21.7099 92.0398 19.558 92.0398 11.8786V11.7661C92.0398 4.75147 97.6541 0.112549 105.528 0.112549C110.209 0.112549 114.283 1.3274 117.748 3.53662C118.327 3.88607 118.804 4.38149 119.132 4.97354C119.461 5.5656 119.629 6.23365 119.62 6.9112C119.62 9.12155 117.858 10.8347 115.655 10.8347C114.897 10.8358 114.153 10.6251 113.507 10.2262C110.704 8.56812 108.056 7.62998 105.413 7.62998C102.162 7.62998 100.458 9.12155 100.458 10.9989V11.1114C100.458 13.6525 102.11 14.486 108.773 16.1947C116.592 18.2385 120.993 21.0563 120.993 27.7953V27.9078C120.993 35.5884 115.156 39.8977 106.841 39.8977C101.651 39.9014 96.5902 38.2758 92.3672 35.2487Z" fill="#CEDFD7"/>
<path d="M54.9156 39.5467C43.8698 39.5467 35.7073 31.6311 35.7073 20.1406V20C35.7073 9.28122 43.1848 0.449951 53.8865 0.449951C66.1666 0.449951 71.5859 10.7525 71.5859 18.5287C71.5859 21.6119 69.4558 23.6434 66.7148 23.6434H46.0659C47.0951 28.4803 50.3876 31 55.0513 31C57.9347 31 60.3349 30.09 62.4604 28.4781C63.216 27.9156 63.901 27.6378 64.9996 27.6378C67.3314 27.6378 69.0478 29.4589 69.0478 31.8403C69.0522 32.4325 68.9323 33.019 68.6958 33.5616C68.4594 34.1043 68.1118 34.5909 67.6756 34.9899C64.4503 37.7953 60.2665 39.5467 54.9156 39.5467ZM61.642 16.9876C61.0243 12.2239 58.2788 9.00113 53.891 9.00113C49.5693 9.00113 46.7554 12.1507 45.9314 16.9876H61.642Z" fill="#CEDFD7"/>
</g>
<defs>
<clipPath id="clip0">
<rect width="121" height="40" fill="white"/>
</clipPath>
</defs>
</svg>
