<svg width="693" height="800" viewBox="0 0 693 800" fill="none" xmlns="http://www.w3.org/2000/svg">
<path d="M0 191.499V190.439C0 85.7491 78.8845 0 191.952 0C247.18 0 284.519 14.7319 315.024 37.352C319.93 41.1403 323.902 46.0038 326.635 51.5684C329.367 57.133 330.788 63.2505 330.787 69.4503C330.787 91.5482 312.912 108.899 290.822 108.899C279.781 108.899 272.395 104.69 266.644 101.011C244.017 84.1822 220.361 74.704 191.43 74.704C129.368 74.704 84.7045 126.258 84.7045 189.402V190.439C84.7045 253.568 128.347 306.182 191.468 306.182C225.636 306.182 248.286 295.659 271.397 277.248C278.165 271.523 286.727 268.357 295.591 268.3C316.099 268.3 333.459 285.144 333.459 305.652C333.459 318.287 327.14 328.272 319.776 334.601C286.646 363.527 247.741 380.886 188.827 380.886C80.4585 380.886 0 297.249 0 191.499Z" fill="#CEDFD7" fill-opacity="0.1"/>
<path d="M270.775 463.817C270.922 453.169 275.253 443.006 282.832 435.528C290.411 428.05 300.628 423.858 311.273 423.858C321.918 423.858 332.136 428.05 339.714 435.528C347.293 443.006 351.625 453.169 351.771 463.817V757.379C351.625 768.027 347.293 778.189 339.714 785.667C332.136 793.145 321.918 797.338 311.273 797.338C300.628 797.338 290.411 793.145 282.832 785.667C275.253 778.189 270.922 768.027 270.775 757.379V463.817Z" fill="#CEDFD7" fill-opacity="0.1"/>
<path d="M413.188 755.797C404.258 749.491 397.939 737.916 397.939 725.296C397.939 704.243 414.777 687.944 435.807 687.944C444.11 687.865 452.219 690.446 458.949 695.31C486.828 715.818 517.303 728.453 553.082 728.453C586.213 728.453 606.207 715.288 606.207 693.728V692.668C606.207 672.16 593.577 661.637 532.052 645.853C457.89 626.912 410.009 606.389 410.009 533.267V532.214C410.009 465.391 463.656 421.211 538.855 421.211C583.557 421.211 622.469 432.786 655.608 453.824C661.131 457.148 665.688 461.86 668.825 467.493C671.962 473.126 673.571 479.482 673.49 485.93C673.49 506.968 656.652 523.282 635.622 523.282C627.729 523.282 621.425 521.169 615.106 517.483C588.294 501.698 563.041 492.766 537.803 492.766C506.768 492.766 490.475 506.967 490.475 524.849V525.908C490.475 550.096 506.254 557.991 569.89 574.298C644.567 593.761 686.596 620.598 686.596 684.764V685.824C686.596 758.961 630.854 799.992 551.462 799.992C503.121 800 454.212 785.268 413.188 755.797Z" fill="#CEDFD7" fill-opacity="0.1"/>
<path d="M533.787 376.562C428.291 376.562 350.327 301.189 350.327 191.775V190.439C350.327 88.3757 421.733 4.31641 523.959 4.31641C641.242 4.31641 693 102.386 693 176.429C693 205.785 672.684 225.133 646.486 225.133H449.267C459.095 271.172 490.537 295.175 535.085 295.175C562.619 295.175 585.545 286.519 605.846 271.172C613.063 265.834 619.605 263.169 630.093 263.169C652.36 263.169 668.753 280.505 668.753 303.179C668.805 308.825 667.665 314.418 665.408 319.594C663.151 324.769 659.827 329.409 655.654 333.211C624.849 359.886 584.893 376.562 533.787 376.562ZM597.991 161.759C592.087 116.396 565.889 85.7181 523.959 85.7181C482.682 85.7181 455.809 115.75 447.946 161.759H597.991Z" fill="#CEDFD7" fill-opacity="0.1"/>
</svg>
