<svg width="368" height="60" viewBox="0 0 368 60" fill="none" xmlns="http://www.w3.org/2000/svg">
<g clip-path="url(#clip0)">
<path d="M0 30.1666V30C0 13.5078 12.4303 0 30.2515 0C38.9531 0 44.8402 2.32155 49.6465 5.88375C50.4195 6.48097 51.0454 7.24738 51.4761 8.12414C51.9068 9.0009 52.1309 9.96469 52.1312 10.9415C52.1299 11.7643 51.9655 12.5787 51.6475 13.3375C51.3294 14.0963 50.8641 14.7845 50.2784 15.3624C49.6926 15.9402 48.9981 16.3961 48.2351 16.7038C47.472 17.0115 46.6555 17.1649 45.8328 17.155C44.4653 17.14 43.1353 16.7057 42.0224 15.9109C38.4534 13.2563 34.7247 11.7675 30.1666 11.7675C20.3875 11.7675 13.3413 19.8878 13.3413 29.8368V30C13.3413 39.9456 20.2209 48.2325 30.1666 48.2325C35.5506 48.2325 39.1162 46.5772 42.7634 43.6744C43.3559 43.168 44.0426 42.7839 44.7841 42.544C45.5256 42.3041 46.3072 42.2132 47.084 42.2765C47.8608 42.3399 48.6173 42.5562 49.3102 42.913C50.003 43.2699 50.6185 43.7602 51.1211 44.3558C51.6237 44.9514 52.0036 45.6405 52.2388 46.3835C52.4741 47.1265 52.5601 47.9087 52.4919 48.685C52.4237 49.4614 52.2027 50.2166 51.8416 50.9072C51.4804 51.5978 50.9862 52.2102 50.3875 52.709C45.1666 57.2672 39.0347 60 29.7519 60C12.6784 60 0 46.8253 0 30.1666Z" fill="#CEDFD7"/>
<path d="M115.843 6.87601C115.882 5.20898 116.571 3.62318 117.764 2.45777C118.956 1.29237 120.557 0.639893 122.225 0.639893C123.892 0.639893 125.494 1.29237 126.686 2.45777C127.879 3.62318 128.568 5.20898 128.607 6.87601V53.1235C128.568 54.7905 127.879 56.3763 126.686 57.5417C125.494 58.7071 123.892 59.3596 122.225 59.3596C120.557 59.3596 118.956 58.7071 117.764 57.5417C116.571 56.3763 115.882 54.7905 115.843 53.1235V6.87601Z" fill="#CEDFD7"/>
<path d="M139.021 52.8721C138.272 52.3157 137.664 51.5913 137.246 50.7571C136.828 49.923 136.612 49.0023 136.615 48.0693C136.613 47.289 136.767 46.5163 137.068 45.7962C137.368 45.0762 137.809 44.4232 138.365 43.8754C138.92 43.3277 139.58 42.8961 140.304 42.606C141.028 42.3158 141.803 42.1729 142.583 42.1855C143.892 42.172 145.17 42.5782 146.23 43.3446C150.622 46.5771 155.432 48.5656 161.064 48.5656C166.285 48.5656 169.436 46.4921 169.436 43.0965V42.9299C169.436 39.6974 167.447 38.0421 157.75 35.554C146.064 32.5696 138.521 29.3371 138.521 17.8178V17.6512C138.521 7.11416 146.978 0.166504 158.827 0.166504C165.874 0.166504 171.992 1.98839 177.226 5.30247C178.327 5.97845 179.176 6.99667 179.643 8.2012C180.11 9.40572 180.17 10.7301 179.812 11.9716C179.455 13.213 178.7 14.303 177.664 15.0747C176.628 15.8463 175.367 16.2571 174.075 16.244C172.934 16.246 171.815 15.9306 170.843 15.3331C166.618 12.845 162.638 11.4377 158.661 11.4377C153.773 11.4377 151.203 13.6743 151.203 16.4921V16.6553C151.203 20.4656 153.691 21.7097 163.719 24.2794C175.486 27.3385 182.114 31.5737 182.114 41.6825V41.849C182.114 53.3684 173.331 59.8334 160.816 59.8334C153.002 59.8449 145.381 57.4107 139.021 52.8721Z" fill="#CEDFD7"/>
<path d="M82.6512 59.3203C66.0265 59.3203 53.7593 47.4474 53.7593 30.2109V30.0001C53.7423 13.9362 64.9965 0.679932 81.1012 0.679932C99.5921 0.679932 107.75 16.1286 107.75 27.7941C107.75 32.4168 104.548 35.4658 100.418 35.4658H69.3405C70.8871 42.7194 75.8429 46.4991 82.8619 46.4991C86.8993 46.5333 90.8296 45.2012 94.0142 42.7194C95.0952 41.8601 96.4481 41.4164 97.828 41.4685C101.339 41.4685 103.922 44.1877 103.922 47.7703C103.93 48.66 103.75 49.5413 103.394 50.3567C103.038 51.172 102.514 51.903 101.856 52.5018C97.002 56.6928 90.7035 59.3203 82.6512 59.3203ZM92.7702 25.493C91.8388 18.355 87.6954 13.5011 81.1012 13.5011C74.5989 13.5011 70.3602 18.2326 69.1264 25.493H92.7702Z" fill="#CEDFD7"/>
<path d="M195.425 8.44679V8.4162C195.425 5.46923 197.627 3.02871 200.693 3.02871C202.06 2.99283 203.39 3.47898 204.412 4.38833C204.483 4.44575 204.542 4.51802 204.583 4.60017C204.624 4.68232 204.647 4.7724 204.65 4.8642C204.643 5.01843 204.578 5.16442 204.468 5.27197C204.357 5.37953 204.209 5.44041 204.055 5.44203C203.915 5.43645 203.781 5.39038 203.667 5.30947C202.864 4.5375 201.79 4.11051 200.676 4.1198C198.372 4.1198 196.645 5.99268 196.645 8.38901V8.4196C196.645 10.8295 198.385 12.7194 200.676 12.7194C201.25 12.7275 201.82 12.6196 202.352 12.4024C202.883 12.1851 203.365 11.8629 203.769 11.455C203.867 11.3526 204.001 11.2927 204.143 11.2884C204.291 11.2943 204.432 11.3561 204.537 11.4614C204.641 11.5667 204.702 11.7077 204.707 11.856C204.707 11.935 204.689 12.013 204.656 12.0846C204.622 12.1562 204.574 12.2197 204.514 12.2707C204.004 12.7721 203.4 13.1659 202.735 13.4287C202.071 13.6915 201.36 13.8179 200.645 13.8003C197.641 13.8003 195.425 11.4346 195.425 8.44679Z" fill="#CEDFD7"/>
<path d="M206.917 13.0288V3.80381C206.917 3.64838 206.978 3.4991 207.086 3.38793C207.195 3.27676 207.343 3.21253 207.498 3.20897H213.956C214.03 3.20308 214.105 3.21255 214.175 3.23678C214.245 3.26101 214.309 3.29948 214.363 3.34977C214.418 3.40006 214.461 3.46107 214.491 3.52898C214.521 3.59688 214.536 3.6702 214.536 3.74433C214.536 3.81845 214.521 3.89177 214.491 3.95967C214.461 4.02758 214.418 4.08859 214.363 4.13888C214.309 4.18917 214.245 4.22764 214.175 4.25187C214.105 4.2761 214.03 4.28557 213.956 4.27968H208.093V7.83508H213.3C213.442 7.83686 213.577 7.89412 213.677 7.99455C213.777 8.09497 213.833 8.23055 213.834 8.37213C213.834 8.44221 213.82 8.5116 213.793 8.57635C213.767 8.64109 213.727 8.69992 213.678 8.74948C213.628 8.79903 213.569 8.83834 213.505 8.86516C213.44 8.89198 213.37 8.90578 213.3 8.90578H208.093V12.553H214.041C214.115 12.5471 214.19 12.5565 214.26 12.5808C214.33 12.605 214.394 12.6435 214.448 12.6938C214.503 12.744 214.546 12.8051 214.576 12.873C214.606 12.9409 214.621 13.0142 214.621 13.0883C214.621 13.1624 214.606 13.2358 214.576 13.3037C214.546 13.3716 214.503 13.4326 214.448 13.4829C214.394 13.5332 214.33 13.5716 214.26 13.5959C214.19 13.6201 214.115 13.6296 214.041 13.6237H207.498C207.343 13.6201 207.195 13.5559 207.086 13.4447C206.978 13.3335 206.917 13.1843 206.917 13.0288Z" fill="#CEDFD7"/>
<path d="M216.659 3.73882C216.662 3.58608 216.725 3.44062 216.833 3.3329C216.941 3.22519 217.087 3.16358 217.24 3.16098H217.403C217.523 3.16352 217.64 3.19595 217.744 3.25532C217.848 3.31469 217.935 3.39911 217.998 3.50089L224.337 11.5566V3.71503C224.331 3.63611 224.341 3.55678 224.367 3.48202C224.393 3.40726 224.435 3.33869 224.488 3.28061C224.542 3.22252 224.607 3.17618 224.68 3.14449C224.752 3.1128 224.831 3.09644 224.91 3.09644C224.989 3.09644 225.067 3.1128 225.14 3.14449C225.212 3.17618 225.278 3.22252 225.331 3.28061C225.385 3.33869 225.426 3.40726 225.452 3.48202C225.478 3.55678 225.489 3.63611 225.483 3.71503V13.1168C225.485 13.1887 225.474 13.2604 225.448 13.3276C225.422 13.3948 225.383 13.456 225.332 13.5075C225.282 13.559 225.222 13.5997 225.155 13.6272C225.089 13.6547 225.018 13.6684 224.946 13.6674H224.888C224.766 13.6578 224.647 13.6207 224.541 13.5589C224.435 13.4971 224.345 13.4122 224.276 13.3105L217.818 5.05425V13.1168C217.824 13.1957 217.814 13.275 217.788 13.3498C217.762 13.4246 217.72 13.4931 217.667 13.5512C217.613 13.6093 217.548 13.6556 217.475 13.6873C217.402 13.719 217.324 13.7354 217.245 13.7354C217.166 13.7354 217.088 13.719 217.015 13.6873C216.943 13.6556 216.877 13.6093 216.824 13.5512C216.77 13.4931 216.729 13.4246 216.703 13.3498C216.677 13.275 216.666 13.1957 216.672 13.1168L216.659 3.73882Z" fill="#CEDFD7"/>
<path d="M231.03 4.29279H228.008C227.865 4.29373 227.727 4.23834 227.624 4.13854C227.521 4.03874 227.461 3.9025 227.458 3.75914C227.46 3.61392 227.519 3.47538 227.622 3.37267C227.725 3.26997 227.863 3.21111 228.008 3.2085H235.238C235.384 3.21026 235.523 3.26884 235.626 3.37173C235.728 3.47461 235.787 3.61365 235.789 3.75914C235.786 3.90279 235.727 4.03954 235.624 4.13953C235.52 4.23951 235.382 4.29461 235.238 4.29279H232.22V13.0997C232.22 13.2575 232.157 13.4088 232.046 13.5203C231.934 13.6319 231.783 13.6946 231.625 13.6946C231.467 13.6946 231.316 13.6319 231.204 13.5203C231.093 13.4088 231.03 13.2575 231.03 13.0997V4.29279Z" fill="#CEDFD7"/>
<path d="M237.78 3.80333C237.78 3.6479 237.841 3.49862 237.95 3.38745C238.058 3.27628 238.206 3.21205 238.362 3.2085H242.26C243.538 3.2085 244.565 3.59599 245.221 4.24861C245.747 4.79608 246.035 5.52906 246.023 6.28803V6.31863C246.023 8.01815 244.864 9.03786 243.243 9.33698L245.829 12.6714C245.947 12.7852 246.016 12.9397 246.023 13.1031C246.014 13.2569 245.949 13.4019 245.839 13.5095C245.728 13.6171 245.582 13.6795 245.428 13.6844C245.318 13.6808 245.21 13.6505 245.114 13.596C245.018 13.5416 244.937 13.4645 244.877 13.3717L241.947 9.56132H238.953V13.0997C238.953 13.2557 238.891 13.4053 238.781 13.5155C238.67 13.6258 238.521 13.6878 238.365 13.6878C238.209 13.6878 238.059 13.6258 237.949 13.5155C237.839 13.4053 237.777 13.2557 237.777 13.0997L237.78 3.80333ZM242.155 8.51781C243.718 8.51781 244.833 7.71563 244.833 6.37641V6.34582C244.833 5.06778 243.851 4.30639 242.172 4.30639H238.953V8.51781H242.155Z" fill="#CEDFD7"/>
<path d="M247.889 8.44633V8.41573C247.874 7.70812 248.002 7.0047 248.264 6.34736C248.527 5.69002 248.919 5.09221 249.417 4.58952C249.915 4.08683 250.509 3.68955 251.164 3.42132C251.819 3.1531 252.522 3.01942 253.229 3.02824C256.397 3.02824 258.525 5.51295 258.525 8.38514V8.41573C258.539 9.12294 258.411 9.82578 258.148 10.4825C257.885 11.1392 257.493 11.7365 256.995 12.2387C256.497 12.7409 255.903 13.1379 255.249 13.4061C254.594 13.6743 253.892 13.8082 253.185 13.7998C250.017 13.7998 247.889 11.3151 247.889 8.44633ZM257.291 8.44633V8.41573C257.291 6.0364 255.564 4.11594 253.185 4.11594C250.806 4.11594 249.106 6.0194 249.106 8.38514V8.41573C249.106 10.7951 250.833 12.7155 253.216 12.7155C255.598 12.7155 257.308 10.8087 257.308 8.44633H257.291Z" fill="#CEDFD7"/>
<path d="M265.466 3.80333C265.466 3.6479 265.526 3.49862 265.635 3.38745C265.744 3.27628 265.891 3.21205 266.047 3.2085H269.082C272.355 3.2085 274.616 5.45527 274.616 8.38525V8.41584C274.616 11.3458 272.355 13.6232 269.082 13.6232H266.047C265.891 13.6196 265.744 13.5554 265.635 13.4442C265.526 13.3331 265.466 13.1838 265.466 13.0283V3.80333ZM269.082 12.5355C271.713 12.5355 273.396 10.751 273.396 8.45663V8.42604C273.396 6.11808 271.713 4.30299 269.082 4.30299H266.642V12.5355H269.082Z" fill="#CEDFD7"/>
<path d="M277.053 13.0288V3.80381C277.052 3.64869 277.112 3.49942 277.22 3.38815C277.328 3.27689 277.476 3.21254 277.631 3.20897H284.089C284.163 3.20308 284.237 3.21255 284.307 3.23678C284.377 3.26101 284.442 3.29948 284.496 3.34977C284.551 3.40006 284.594 3.46107 284.624 3.52898C284.653 3.59688 284.669 3.6702 284.669 3.74433C284.669 3.81845 284.653 3.89177 284.624 3.95967C284.594 4.02758 284.551 4.08859 284.496 4.13888C284.442 4.18917 284.377 4.22764 284.307 4.25187C284.237 4.2761 284.163 4.28557 284.089 4.27968H278.226V7.83508H283.433C283.575 7.83684 283.71 7.89399 283.811 7.99433C283.911 8.09466 283.968 8.23024 283.97 8.37213C283.97 8.4425 283.956 8.51217 283.929 8.57714C283.902 8.6421 283.862 8.70109 283.813 8.75068C283.763 8.80028 283.703 8.83952 283.638 8.86614C283.573 8.89276 283.503 8.90623 283.433 8.90578H278.226V12.553H284.177C284.251 12.5471 284.326 12.5565 284.396 12.5808C284.466 12.605 284.53 12.6435 284.584 12.6938C284.639 12.744 284.682 12.8051 284.712 12.873C284.742 12.9409 284.757 13.0142 284.757 13.0883C284.757 13.1624 284.742 13.2358 284.712 13.3037C284.682 13.3716 284.639 13.4326 284.584 13.4829C284.53 13.5332 284.466 13.5716 284.396 13.5959C284.326 13.6201 284.251 13.6296 284.177 13.6237H277.631C277.476 13.6201 277.328 13.5557 277.22 13.4445C277.112 13.3332 277.052 13.1839 277.053 13.0288Z" fill="#CEDFD7"/>
<path d="M291.482 13.0288V3.80381C291.481 3.64869 291.541 3.49942 291.649 3.38815C291.757 3.27689 291.905 3.21254 292.06 3.20897H298.518C298.592 3.20308 298.666 3.21255 298.736 3.23678C298.806 3.26101 298.871 3.29948 298.925 3.34977C298.979 3.40006 299.023 3.46107 299.053 3.52898C299.082 3.59688 299.098 3.6702 299.098 3.74433C299.098 3.81845 299.082 3.89177 299.053 3.95967C299.023 4.02758 298.979 4.08859 298.925 4.13888C298.871 4.18917 298.806 4.22764 298.736 4.25187C298.666 4.2761 298.592 4.28557 298.518 4.27968H292.658V7.83508H297.865C298.007 7.83684 298.143 7.89399 298.243 7.99433C298.343 8.09466 298.401 8.23024 298.402 8.37213C298.402 8.4425 298.388 8.51217 298.361 8.57714C298.334 8.6421 298.295 8.70109 298.245 8.75068C298.195 8.80028 298.136 8.83952 298.071 8.86614C298.005 8.89276 297.936 8.90623 297.865 8.90578H292.658V12.553H298.606C298.68 12.5471 298.755 12.5565 298.825 12.5808C298.895 12.605 298.959 12.6435 299.013 12.6938C299.068 12.744 299.111 12.8051 299.141 12.873C299.171 12.9409 299.186 13.0142 299.186 13.0883C299.186 13.1624 299.171 13.2358 299.141 13.3037C299.111 13.3716 299.068 13.4326 299.013 13.4829C298.959 13.5332 298.895 13.5716 298.825 13.5959C298.755 13.6201 298.68 13.6296 298.606 13.6237H292.06C291.905 13.6201 291.757 13.5557 291.649 13.4445C291.541 13.3332 291.481 13.1839 291.482 13.0288Z" fill="#CEDFD7"/>
<path d="M300.948 12.3722C300.877 12.3221 300.82 12.2552 300.781 12.1776C300.741 12.0999 300.722 12.0138 300.724 11.9269C300.723 11.8514 300.736 11.7763 300.764 11.706C300.792 11.6358 300.834 11.5718 300.886 11.5177C300.939 11.4637 301.002 11.4206 301.072 11.3911C301.141 11.3615 301.216 11.3461 301.292 11.3457C301.423 11.3445 301.55 11.3917 301.649 11.4782C302.546 12.2947 303.722 12.7373 304.935 12.7155C306.332 12.7155 307.257 11.9711 307.257 10.9446V10.914C307.257 9.94867 306.737 9.39802 304.538 8.93575C302.158 8.4157 301.044 7.64071 301.044 5.93099V5.9004C301.044 4.26546 302.485 3.05879 304.463 3.05879C305.652 3.01799 306.82 3.37704 307.78 4.07851C307.857 4.1323 307.92 4.20339 307.965 4.28605C308.009 4.36871 308.033 4.46063 308.035 4.55438C308.035 4.70434 307.976 4.84821 307.87 4.95456C307.765 5.06092 307.621 5.12112 307.471 5.12202C307.349 5.12548 307.23 5.08842 307.131 5.01665C306.36 4.42213 305.413 4.10266 304.439 4.1091C303.08 4.1091 302.223 4.85349 302.223 5.78823V5.81882C302.223 6.80115 302.757 7.35179 305.048 7.84126C307.339 8.33072 308.447 9.20088 308.447 10.7882V10.8188C308.447 12.6033 306.958 13.7624 304.891 13.7624C303.454 13.7781 302.058 13.2857 300.948 12.3722Z" fill="#CEDFD7"/>
<path d="M313.46 4.29279H310.438C310.295 4.29373 310.157 4.23834 310.054 4.13854C309.951 4.03874 309.891 3.9025 309.887 3.75914C309.89 3.61392 309.949 3.47538 310.052 3.37267C310.154 3.26997 310.293 3.21111 310.438 3.2085H317.671C317.816 3.21114 317.954 3.2701 318.057 3.3729C318.159 3.47569 318.217 3.61423 318.219 3.75914C318.216 3.9022 318.157 4.03843 318.054 4.13832C317.952 4.23821 317.814 4.29371 317.671 4.29279H314.65V13.0997C314.65 13.2575 314.587 13.4088 314.475 13.5203C314.364 13.6319 314.212 13.6946 314.055 13.6946C313.897 13.6946 313.746 13.6319 313.634 13.5203C313.523 13.4088 313.46 13.2575 313.46 13.0997V4.29279Z" fill="#CEDFD7"/>
<path d="M320.133 9.26261V3.73916C320.133 3.5832 320.195 3.43363 320.305 3.32335C320.415 3.21308 320.565 3.15112 320.721 3.15112C320.877 3.15112 321.026 3.21308 321.136 3.32335C321.247 3.43363 321.309 3.5832 321.309 3.73916V9.17764C321.309 11.4244 322.512 12.6889 324.49 12.6889C326.411 12.6889 327.631 11.5298 327.631 9.25241V3.73916C327.631 3.5832 327.693 3.43363 327.803 3.32335C327.913 3.21308 328.063 3.15112 328.219 3.15112C328.375 3.15112 328.524 3.21308 328.635 3.32335C328.745 3.43363 328.807 3.5832 328.807 3.73916V9.17764C328.807 12.213 327.067 13.7901 324.463 13.7901C321.859 13.7901 320.133 12.2096 320.133 9.26261Z" fill="#CEDFD7"/>
<path d="M331.706 3.80333C331.706 3.6479 331.767 3.49862 331.876 3.38745C331.984 3.27628 332.132 3.21205 332.288 3.2085H335.323C338.596 3.2085 340.857 5.45527 340.857 8.38525V8.41584C340.857 11.3458 338.596 13.6232 335.323 13.6232H332.288C332.132 13.6196 331.984 13.5554 331.876 13.4442C331.767 13.3331 331.706 13.1838 331.706 13.0283V3.80333ZM335.323 12.5355C337.957 12.5355 339.636 10.751 339.636 8.45663V8.42604C339.636 6.11808 337.957 4.30299 335.323 4.30299H332.882V12.5355H335.323Z" fill="#CEDFD7"/>
<path d="M343.385 3.73916C343.385 3.5832 343.447 3.43363 343.557 3.32335C343.668 3.21308 343.817 3.15112 343.973 3.15112C344.129 3.15112 344.279 3.21308 344.389 3.32335C344.499 3.43363 344.561 3.5832 344.561 3.73916V13.1001C344.561 13.2561 344.499 13.4057 344.389 13.5159C344.279 13.6262 344.129 13.6882 343.973 13.6882C343.817 13.6882 343.668 13.6262 343.557 13.5159C343.447 13.4057 343.385 13.2561 343.385 13.1001V3.73916Z" fill="#CEDFD7"/>
<path d="M347.06 8.44663V8.41604C347.045 7.7097 347.172 7.00763 347.434 6.35141C347.696 5.6952 348.087 5.0982 348.583 4.5958C349.08 4.09339 349.673 3.69581 350.326 3.42659C350.979 3.15738 351.68 3.02203 352.386 3.02855C355.554 3.02855 357.682 5.51325 357.682 8.38545V8.41604C357.696 9.12209 357.568 9.8238 357.306 10.4796C357.044 11.1354 356.653 11.732 356.157 12.2341C355.66 12.7361 355.068 13.1334 354.415 13.4024C353.762 13.6714 353.062 13.8066 352.355 13.8001C349.188 13.8001 347.06 11.3154 347.06 8.44663ZM356.461 8.44663V8.41604C356.461 6.0367 354.738 4.11624 352.355 4.11624C349.973 4.11624 348.277 6.01971 348.277 8.38545V8.41604C348.277 10.7954 350.003 12.7158 352.383 12.7158C354.762 12.7158 356.461 10.809 356.461 8.44663Z" fill="#CEDFD7"/>
<path d="M359.599 12.3722C359.528 12.322 359.471 12.2552 359.431 12.1776C359.392 12.0999 359.373 12.0138 359.375 11.9269C359.374 11.8514 359.387 11.7763 359.415 11.706C359.443 11.6358 359.484 11.5718 359.537 11.5177C359.59 11.4637 359.653 11.4206 359.723 11.3911C359.792 11.3615 359.867 11.3461 359.943 11.3457C360.068 11.3486 360.188 11.3955 360.282 11.4782C361.18 12.2947 362.356 12.7372 363.569 12.7155C364.97 12.7155 365.891 11.9711 365.891 10.9446V10.914C365.891 9.94866 365.371 9.39802 363.172 8.93575C360.792 8.41569 359.677 7.64071 359.677 5.93099V5.9004C359.677 4.26546 361.119 3.05879 363.097 3.05879C364.286 3.01799 365.454 3.37704 366.414 4.07851C366.491 4.13286 366.553 4.20408 366.597 4.28662C366.642 4.36916 366.666 4.46079 366.669 4.55438C366.669 4.70434 366.61 4.84821 366.504 4.95456C366.398 5.06092 366.255 5.12112 366.105 5.12202C365.983 5.126 365.863 5.08889 365.765 5.01665C364.994 4.42213 364.047 4.10266 363.073 4.1091C361.713 4.1091 360.853 4.85349 360.853 5.78823V5.81882C360.853 6.80115 361.391 7.35179 363.681 7.84125C365.972 8.33072 367.081 9.20087 367.081 10.7882V10.8188C367.081 12.6033 365.592 13.7624 363.525 13.7624C362.094 13.7741 360.704 13.282 359.599 12.3722Z" fill="#CEDFD7"/>
<path d="M195.989 19.8434C195.989 19.6874 196.051 19.5379 196.161 19.4276C196.272 19.3173 196.421 19.2554 196.577 19.2554C196.733 19.2554 196.883 19.3173 196.993 19.4276C197.103 19.5379 197.165 19.6874 197.165 19.8434V29.2316C197.165 29.3875 197.103 29.5371 196.993 29.6474C196.883 29.7577 196.733 29.8196 196.577 29.8196C196.421 29.8196 196.272 29.7577 196.161 29.6474C196.051 29.5371 195.989 29.3875 195.989 29.2316V19.8434Z" fill="#CEDFD7"/>
<path d="M200.224 19.8604C200.227 19.707 200.289 19.5607 200.397 19.4523C200.506 19.3438 200.652 19.2818 200.806 19.2791H200.969C201.088 19.2817 201.205 19.3141 201.309 19.3735C201.413 19.4328 201.501 19.5173 201.564 19.619L207.886 27.6816V19.8298C207.88 19.7509 207.89 19.6715 207.916 19.5968C207.942 19.522 207.983 19.4534 208.037 19.3954C208.091 19.3373 208.156 19.2909 208.229 19.2592C208.301 19.2275 208.379 19.2112 208.459 19.2112C208.538 19.2112 208.616 19.2275 208.689 19.2592C208.761 19.2909 208.826 19.3373 208.88 19.3954C208.934 19.4534 208.975 19.522 209.001 19.5968C209.027 19.6715 209.037 19.7509 209.031 19.8298V29.2315C209.034 29.3034 209.022 29.3752 208.996 29.4423C208.971 29.5095 208.931 29.5707 208.881 29.6222C208.831 29.6737 208.771 29.7145 208.704 29.742C208.638 29.7695 208.566 29.7832 208.494 29.7822H208.436C208.314 29.7728 208.196 29.7357 208.09 29.6739C207.984 29.6121 207.893 29.5271 207.825 29.4253L201.366 21.169V29.2315C201.373 29.3105 201.362 29.3898 201.336 29.4645C201.31 29.5393 201.269 29.6079 201.215 29.666C201.161 29.724 201.096 29.7704 201.024 29.8021C200.951 29.8338 200.873 29.8501 200.794 29.8501C200.715 29.8501 200.636 29.8338 200.564 29.8021C200.491 29.7704 200.426 29.724 200.372 29.666C200.318 29.6079 200.277 29.5393 200.251 29.4645C200.225 29.3898 200.215 29.3105 200.221 29.2315L200.224 19.8604Z" fill="#CEDFD7"/>
<path d="M214.592 20.3946H211.574C211.43 20.3964 211.292 20.3413 211.188 20.2413C211.085 20.1413 211.026 20.0046 211.023 19.8609C211.026 19.7157 211.085 19.5772 211.187 19.4745C211.29 19.3718 211.429 19.3129 211.574 19.3103H218.804C218.949 19.3121 219.088 19.3706 219.191 19.4735C219.294 19.5764 219.352 19.7155 219.354 19.8609C219.352 20.0046 219.292 20.1413 219.189 20.2413C219.086 20.3413 218.947 20.3964 218.804 20.3946H215.785V29.2321C215.791 29.3142 215.781 29.3968 215.753 29.4745C215.726 29.5523 215.683 29.6236 215.627 29.684C215.571 29.7443 215.504 29.7925 215.428 29.8255C215.353 29.8584 215.271 29.8754 215.189 29.8754C215.106 29.8754 215.025 29.8584 214.949 29.8255C214.874 29.7925 214.806 29.7443 214.75 29.684C214.694 29.6236 214.651 29.5523 214.624 29.4745C214.597 29.3968 214.586 29.3142 214.592 29.2321V20.3946Z" fill="#CEDFD7"/>
<path d="M221.346 29.1436V19.9186C221.346 19.7631 221.407 19.6139 221.515 19.5027C221.624 19.3915 221.772 19.3273 221.927 19.3237H228.385C228.521 19.3299 228.649 19.3871 228.744 19.4837C228.839 19.5804 228.894 19.7094 228.898 19.8449C228.902 19.9804 228.854 20.1123 228.765 20.2142C228.675 20.3161 228.551 20.3805 228.416 20.3944H222.522V23.9498H227.736C227.874 23.9532 228.006 24.0094 228.104 24.1067C228.202 24.2041 228.259 24.3352 228.263 24.4733C228.265 24.5439 228.253 24.6142 228.227 24.6801C228.201 24.746 228.163 24.8061 228.114 24.857C228.065 24.908 228.006 24.9486 227.942 24.9767C227.877 25.0048 227.807 25.0197 227.736 25.0205H222.522V28.6677H228.474C228.608 28.6784 228.734 28.7395 228.826 28.8387C228.917 28.9379 228.968 29.068 228.968 29.2031C228.968 29.3381 228.917 29.4682 228.826 29.5674C228.734 29.6666 228.608 29.7277 228.474 29.7384H221.927C221.772 29.7349 221.624 29.6706 221.515 29.5595C221.407 29.4483 221.346 29.299 221.346 29.1436Z" fill="#CEDFD7"/>
<path d="M231.088 19.9186C231.088 19.7631 231.148 19.6139 231.257 19.5027C231.366 19.3915 231.513 19.3273 231.669 19.3237H235.554C236.832 19.3237 237.858 19.7112 238.515 20.3638C239.04 20.9113 239.329 21.6443 239.317 22.4033V22.4339C239.317 24.1334 238.158 25.1531 236.536 25.4522L239.123 28.7867C239.24 28.9005 239.31 29.055 239.317 29.2184C239.308 29.3721 239.242 29.5171 239.132 29.6247C239.022 29.7323 238.876 29.7947 238.722 29.7996C238.612 29.7961 238.504 29.7658 238.408 29.7113C238.312 29.6568 238.231 29.5798 238.171 29.4869L235.241 25.6766H232.25V29.232C232.25 29.3879 232.188 29.5375 232.078 29.6478C231.968 29.758 231.818 29.82 231.662 29.82C231.506 29.82 231.356 29.758 231.246 29.6478C231.136 29.5375 231.074 29.3879 231.074 29.232L231.088 19.9186ZM235.462 24.633C237.026 24.633 238.141 23.8309 238.141 22.4916V22.4644C238.141 21.183 237.158 20.408 235.479 20.408H232.264V24.633H235.462Z" fill="#CEDFD7"/>
<path d="M241.876 19.9186C241.876 19.7631 241.937 19.6139 242.046 19.5027C242.154 19.3915 242.302 19.3273 242.458 19.3237H245.493C248.766 19.3237 251.027 21.5705 251.027 24.5005V24.5311C251.027 27.4611 248.766 29.7384 245.493 29.7384H242.458C242.302 29.7349 242.154 29.6706 242.046 29.5595C241.937 29.4483 241.876 29.299 241.876 29.1436V19.9186ZM245.493 28.6507C248.124 28.6507 249.806 26.8662 249.806 24.5719V24.5413C249.806 22.2231 248.131 20.3944 245.493 20.3944H243.053V28.6507H245.493Z" fill="#CEDFD7"/>
<path d="M253.569 19.8434C253.569 19.6874 253.631 19.5379 253.741 19.4276C253.852 19.3173 254.001 19.2554 254.157 19.2554C254.313 19.2554 254.463 19.3173 254.573 19.4276C254.683 19.5379 254.745 19.6874 254.745 19.8434V29.2316C254.745 29.3875 254.683 29.5371 254.573 29.6474C254.463 29.7577 254.313 29.8196 254.157 29.8196C254.001 29.8196 253.852 29.7577 253.741 29.6474C253.631 29.5371 253.569 29.3875 253.569 29.2316V19.8434Z" fill="#CEDFD7"/>
<path d="M257.355 28.4877C257.284 28.4382 257.225 28.3715 257.186 28.2937C257.147 28.2159 257.128 28.1295 257.131 28.0424C257.13 27.9671 257.143 27.8923 257.171 27.8223C257.198 27.7523 257.24 27.6884 257.292 27.6344C257.345 27.5804 257.407 27.5373 257.476 27.5075C257.546 27.4778 257.62 27.462 257.695 27.4612C257.826 27.4593 257.954 27.5066 258.052 27.5937C258.951 28.411 260.128 28.8536 261.342 28.831C262.739 28.831 263.664 28.0866 263.664 27.0601V27.0295C263.664 26.0641 263.14 25.5135 260.945 25.0512C258.548 24.5312 257.447 23.7562 257.447 22.0465V22.0159C257.447 20.3809 258.892 19.1743 260.87 19.1743C262.059 19.1335 263.227 19.4925 264.187 20.194C264.263 20.2485 264.325 20.3199 264.369 20.4024C264.413 20.485 264.437 20.5765 264.439 20.6699C264.439 20.7442 264.425 20.818 264.397 20.8868C264.369 20.9557 264.327 21.0183 264.275 21.071C264.222 21.1238 264.16 21.1657 264.091 21.1942C264.023 21.2228 263.949 21.2375 263.875 21.2375C263.753 21.2405 263.634 21.2034 263.535 21.1321C262.764 20.5371 261.816 20.2176 260.843 20.2246C259.483 20.2246 258.627 20.969 258.627 21.9037V21.9343C258.627 22.9166 259.164 23.4673 261.455 23.9737C263.746 24.4802 264.854 25.3334 264.854 26.9173V26.9479C264.854 28.7324 263.365 29.8915 261.298 29.8915C259.859 29.9045 258.462 29.4072 257.355 28.4877Z" fill="#CEDFD7"/>
<path d="M266.628 24.5614V24.5308C266.628 21.5838 268.831 19.1433 271.893 19.1433C273.261 19.1064 274.591 19.5927 275.612 20.5029C275.684 20.5599 275.743 20.632 275.785 20.7142C275.827 20.7964 275.85 20.8867 275.853 20.9788C275.846 21.1333 275.78 21.2793 275.669 21.3868C275.558 21.4943 275.41 21.5551 275.255 21.5566C275.116 21.5526 274.982 21.5064 274.871 21.4241C274.067 20.6527 272.994 20.2258 271.88 20.2344C269.575 20.231 267.845 22.0937 267.845 24.5002V24.5308C267.845 26.9407 269.585 28.8306 271.876 28.8306C272.453 28.8405 273.025 28.7336 273.559 28.5163C274.093 28.299 274.577 27.9758 274.983 27.5662C275.081 27.4638 275.215 27.404 275.357 27.3996C275.505 27.4055 275.646 27.4673 275.751 27.5726C275.855 27.6779 275.916 27.8189 275.921 27.9672C275.921 28.0463 275.903 28.1242 275.87 28.1958C275.836 28.2674 275.788 28.3309 275.727 28.3819C275.217 28.8843 274.61 29.2786 273.944 29.5414C273.278 29.8042 272.565 29.9301 271.849 29.9115C268.844 29.9115 266.628 27.5492 266.628 24.5614Z" fill="#CEDFD7"/>
<path d="M278.171 19.8434C278.171 19.6874 278.233 19.5379 278.344 19.4276C278.454 19.3173 278.603 19.2554 278.759 19.2554C278.915 19.2554 279.065 19.3173 279.175 19.4276C279.285 19.5379 279.347 19.6874 279.347 19.8434V29.2316C279.347 29.3875 279.285 29.5371 279.175 29.6474C279.065 29.7577 278.915 29.8196 278.759 29.8196C278.603 29.8196 278.454 29.7577 278.344 29.6474C278.233 29.5371 278.171 29.3875 278.171 29.2316V19.8434Z" fill="#CEDFD7"/>
<path d="M282.403 19.9186C282.403 19.7631 282.464 19.6139 282.572 19.5027C282.681 19.3915 282.829 19.3273 282.984 19.3237H286.302C288.654 19.3237 290.201 20.5746 290.201 22.6276V22.6548C290.201 24.9016 288.328 26.0538 286.122 26.0538H283.593V29.232C283.593 29.3879 283.531 29.5375 283.421 29.6478C283.31 29.758 283.161 29.82 283.005 29.82C282.849 29.82 282.699 29.758 282.589 29.6478C282.479 29.5375 282.417 29.3879 282.417 29.232L282.403 19.9186ZM286.142 24.9933C287.869 24.9933 289.001 24.0688 289.001 22.7024V22.6718C289.011 21.183 287.899 20.3944 286.2 20.3944H283.566V24.9933H286.142Z" fill="#CEDFD7"/>
<path d="M292.243 19.8434C292.243 19.6874 292.305 19.5379 292.415 19.4276C292.526 19.3173 292.675 19.2554 292.831 19.2554C292.987 19.2554 293.137 19.3173 293.247 19.4276C293.357 19.5379 293.419 19.6874 293.419 19.8434V28.6503H298.82C298.964 28.6539 299.1 28.7136 299.2 28.8166C299.299 28.9195 299.355 29.0576 299.354 29.201C299.354 29.2714 299.341 29.3411 299.314 29.4062C299.288 29.4714 299.248 29.5306 299.199 29.5805C299.149 29.6304 299.09 29.6701 299.025 29.6971C298.96 29.7241 298.891 29.738 298.82 29.738H292.824C292.669 29.7345 292.521 29.6702 292.413 29.5591C292.304 29.4479 292.243 29.2986 292.243 29.1432V19.8434Z" fill="#CEDFD7"/>
<path d="M301.384 19.8434C301.384 19.6874 301.446 19.5379 301.556 19.4276C301.666 19.3173 301.816 19.2554 301.972 19.2554C302.128 19.2554 302.277 19.3173 302.387 19.4276C302.498 19.5379 302.56 19.6874 302.56 19.8434V29.2316C302.56 29.3875 302.498 29.5371 302.387 29.6474C302.277 29.7577 302.128 29.8196 301.972 29.8196C301.816 29.8196 301.666 29.7577 301.556 29.6474C301.446 29.5371 301.384 29.3875 301.384 29.2316V19.8434Z" fill="#CEDFD7"/>
<path d="M305.615 19.8604C305.618 19.707 305.68 19.5607 305.788 19.4523C305.897 19.3438 306.043 19.2818 306.196 19.2791H306.359C306.479 19.2814 306.596 19.3137 306.7 19.3731C306.804 19.4325 306.892 19.517 306.954 19.619L313.276 27.6816V19.8298C313.27 19.7509 313.281 19.6715 313.307 19.5968C313.333 19.522 313.374 19.4534 313.428 19.3954C313.481 19.3373 313.547 19.2909 313.619 19.2592C313.692 19.2275 313.77 19.2112 313.849 19.2112C313.928 19.2112 314.007 19.2275 314.079 19.2592C314.152 19.2909 314.217 19.3373 314.271 19.3954C314.324 19.4534 314.366 19.522 314.392 19.5968C314.418 19.6715 314.428 19.7509 314.422 19.8298V29.2315C314.425 29.3033 314.414 29.3749 314.388 29.4421C314.363 29.5092 314.324 29.5705 314.274 29.622C314.224 29.6736 314.164 29.7144 314.098 29.742C314.031 29.7695 313.96 29.7832 313.888 29.7822H313.827C313.705 29.7727 313.587 29.7357 313.482 29.6739C313.376 29.612 313.286 29.527 313.219 29.4253L306.76 21.169V29.2315C306.767 29.3105 306.756 29.3898 306.73 29.4645C306.704 29.5393 306.663 29.6079 306.609 29.666C306.555 29.724 306.49 29.7704 306.418 29.8021C306.345 29.8338 306.267 29.8501 306.188 29.8501C306.109 29.8501 306.03 29.8338 305.958 29.8021C305.885 29.7704 305.82 29.724 305.766 29.666C305.712 29.6079 305.671 29.5393 305.645 29.4645C305.619 29.3898 305.609 29.3105 305.615 29.2315V19.8604Z" fill="#CEDFD7"/>
<path d="M316.54 28.9631L320.765 19.7143C320.818 19.56 320.919 19.4266 321.052 19.3332C321.186 19.2397 321.346 19.1911 321.509 19.1942H321.57C321.731 19.191 321.889 19.2399 322.02 19.3336C322.151 19.4273 322.249 19.5608 322.298 19.7143L326.523 28.9393C326.567 29.0321 326.592 29.1325 326.597 29.235C326.598 29.3094 326.584 29.3832 326.555 29.452C326.527 29.5209 326.486 29.5835 326.433 29.6362C326.381 29.689 326.319 29.7308 326.25 29.7594C326.181 29.788 326.108 29.8027 326.033 29.8027C325.904 29.7975 325.78 29.7535 325.676 29.6765C325.572 29.5995 325.494 29.493 325.452 29.371L324.364 26.9917H318.654L317.566 29.4152C317.528 29.534 317.452 29.6375 317.351 29.7102C317.249 29.783 317.127 29.8214 317.002 29.8197C316.93 29.822 316.857 29.8096 316.79 29.7831C316.723 29.7567 316.661 29.7169 316.61 29.666C316.558 29.6151 316.518 29.5543 316.49 29.4872C316.463 29.4201 316.45 29.3482 316.451 29.2758C316.456 29.1661 316.486 29.059 316.54 28.9631ZM323.905 25.904L321.526 20.5777L319.147 25.904H323.905Z" fill="#CEDFD7"/>
<path d="M328.654 19.9186C328.654 19.7631 328.715 19.6139 328.823 19.5027C328.932 19.3915 329.08 19.3273 329.235 19.3237H333.134C334.412 19.3237 335.438 19.7112 336.094 20.3638C336.62 20.9113 336.908 21.6443 336.896 22.4033V22.4339C336.896 24.1334 335.737 25.1531 334.116 25.4522L336.703 28.7867C336.82 28.9005 336.889 29.055 336.896 29.2184C336.888 29.3721 336.822 29.5171 336.712 29.6247C336.602 29.7323 336.456 29.7947 336.302 29.7996C336.191 29.7961 336.084 29.7658 335.988 29.7113C335.892 29.6568 335.81 29.5798 335.751 29.4869L332.821 25.6766H329.83V29.232C329.83 29.3879 329.768 29.5375 329.658 29.6478C329.547 29.758 329.398 29.82 329.242 29.82C329.086 29.82 328.936 29.758 328.826 29.6478C328.716 29.5375 328.654 29.3879 328.654 29.232V19.9186ZM333.028 24.633C334.592 24.633 335.707 23.8309 335.707 22.4916V22.4644C335.707 21.183 334.724 20.408 333.045 20.408H329.83V24.633H333.028Z" fill="#CEDFD7"/>
<path d="M339.493 19.8434C339.493 19.6874 339.555 19.5379 339.666 19.4276C339.776 19.3173 339.926 19.2554 340.081 19.2554C340.237 19.2554 340.387 19.3173 340.497 19.4276C340.608 19.5379 340.669 19.6874 340.669 19.8434V29.2316C340.669 29.3875 340.608 29.5371 340.497 29.6474C340.387 29.7577 340.237 29.8196 340.081 29.8196C339.926 29.8196 339.776 29.7577 339.666 29.6474C339.555 29.5371 339.493 29.3875 339.493 29.2316V19.8434Z" fill="#CEDFD7"/>
<path d="M343.168 24.5616V24.531C343.153 23.8247 343.281 23.1226 343.542 22.4664C343.804 21.8102 344.195 21.2132 344.692 20.7108C345.188 20.2084 345.781 19.8108 346.434 19.5416C347.087 19.2724 347.788 19.137 348.494 19.1435C351.662 19.1435 353.79 21.6282 353.79 24.5004V24.531C353.804 25.2369 353.676 25.9385 353.414 26.5941C353.152 27.2497 352.761 27.8461 352.265 28.3479C351.768 28.8496 351.176 29.2466 350.523 29.5152C349.87 29.7839 349.17 29.9187 348.464 29.9117C345.296 29.9117 343.168 27.4304 343.168 24.5616ZM352.573 24.5616V24.531C352.573 22.1517 350.846 20.2312 348.464 20.2312C346.081 20.2312 344.385 22.1347 344.385 24.5004V24.531C344.385 26.9104 346.111 28.8308 348.491 28.8308C350.87 28.8308 352.573 26.924 352.573 24.5616Z" fill="#CEDFD7"/>
<path d="M355.71 28.4877C355.639 28.4382 355.581 28.3715 355.541 28.2937C355.502 28.2159 355.483 28.1295 355.486 28.0424C355.484 27.967 355.498 27.892 355.525 27.8218C355.553 27.7516 355.594 27.6875 355.646 27.6334C355.699 27.5793 355.762 27.5362 355.831 27.5066C355.9 27.477 355.975 27.4616 356.05 27.4612C356.176 27.464 356.296 27.511 356.39 27.5937C357.289 28.411 358.466 28.8536 359.681 28.831C361.078 28.831 361.999 28.0866 361.999 27.0601V27.0295C361.999 26.0641 361.479 25.5135 359.279 25.0512C356.9 24.5312 355.782 23.7562 355.782 22.0465V22.0159C355.782 20.3809 357.226 19.1743 359.205 19.1743C360.393 19.1335 361.562 19.4925 362.522 20.194C362.598 20.2485 362.66 20.3199 362.704 20.4024C362.747 20.485 362.771 20.5765 362.774 20.6699C362.774 20.7442 362.76 20.818 362.732 20.8868C362.704 20.9557 362.662 21.0183 362.61 21.071C362.557 21.1238 362.495 21.1657 362.426 21.1942C362.357 21.2228 362.284 21.2375 362.209 21.2375C362.088 21.2405 361.968 21.2034 361.87 21.1321C361.099 20.5371 360.151 20.2176 359.177 20.2246C357.818 20.2246 356.961 20.969 356.961 21.9037V21.9343C356.961 22.9166 357.498 23.4673 359.789 23.9737C362.08 24.4802 363.188 25.3333 363.188 26.9173V26.9479C363.188 28.7324 361.7 29.8915 359.63 29.8915C358.199 29.8989 356.811 29.4019 355.71 28.4877Z" fill="#CEDFD7"/>
<path d="M195.887 36.0299C195.887 35.8745 195.948 35.7252 196.057 35.614C196.165 35.5028 196.313 35.4386 196.468 35.4351H199.783C202.135 35.4351 203.681 36.6859 203.681 38.7389V38.7661C203.681 41.0129 201.808 42.1652 199.602 42.1652H197.073V45.3195C197.073 45.4755 197.012 45.625 196.901 45.7353C196.791 45.8456 196.641 45.9075 196.485 45.9075C196.329 45.9075 196.18 45.8456 196.07 45.7353C195.959 45.625 195.897 45.4755 195.897 45.3195L195.887 36.0299ZM199.626 41.1047C201.353 41.1047 202.481 40.1801 202.481 38.8137V38.7831C202.481 37.2943 201.366 36.5228 199.684 36.5228H197.053V41.1047H199.626Z" fill="#CEDFD7"/>
<path d="M204.221 45.0784L208.446 35.8398C208.5 35.6855 208.6 35.5521 208.734 35.4587C208.868 35.3652 209.028 35.3166 209.191 35.3197H209.252C209.413 35.3165 209.571 35.3653 209.702 35.4591C209.833 35.5528 209.93 35.6863 209.979 35.8398L214.204 45.0648C214.248 45.1577 214.273 45.2581 214.279 45.3605C214.28 45.4349 214.265 45.5086 214.237 45.5775C214.209 45.6463 214.168 45.7089 214.115 45.7617C214.063 45.8145 214 45.8563 213.932 45.8849C213.863 45.9135 213.789 45.9282 213.715 45.9282C213.586 45.9225 213.462 45.8784 213.358 45.8014C213.255 45.7245 213.176 45.6183 213.134 45.4965L212.049 43.1171H206.322L205.234 45.5441C205.195 45.6623 205.12 45.765 205.018 45.8371C204.917 45.9092 204.795 45.9471 204.67 45.9452C204.6 45.9452 204.53 45.9312 204.465 45.9042C204.4 45.8772 204.341 45.8376 204.292 45.7877C204.242 45.7377 204.203 45.6785 204.176 45.6134C204.15 45.5482 204.136 45.4785 204.136 45.4081C204.136 45.2928 204.166 45.1793 204.221 45.0784ZM211.587 42.0193L209.208 36.6929L206.829 42.0193H211.587Z" fill="#CEDFD7"/>
<path d="M216.336 36.0299C216.336 35.8745 216.397 35.7252 216.505 35.614C216.614 35.5028 216.762 35.4386 216.917 35.4351H220.816C222.094 35.4351 223.12 35.8225 223.776 36.4752C224.302 37.0226 224.591 37.7556 224.579 38.5146V38.5452C224.579 40.2447 223.42 41.2644 221.798 41.5669L224.385 44.898C224.502 45.0118 224.572 45.1663 224.579 45.3297C224.57 45.4834 224.504 45.6284 224.394 45.736C224.284 45.8436 224.138 45.9061 223.984 45.9109C223.874 45.9074 223.766 45.8771 223.67 45.8226C223.574 45.7681 223.493 45.6911 223.433 45.5982L220.503 41.8083H217.512V45.3365C217.512 45.4924 217.45 45.642 217.34 45.7523C217.229 45.8626 217.08 45.9245 216.924 45.9245C216.768 45.9245 216.618 45.8626 216.508 45.7523C216.398 45.642 216.336 45.4924 216.336 45.3365V36.0299ZM220.711 40.7478C222.274 40.7478 223.389 39.9422 223.389 38.603V38.5758C223.389 37.2943 222.407 36.5363 220.728 36.5363H217.512V40.7614L220.711 40.7478Z" fill="#CEDFD7"/>
<path d="M226.485 45.0784L230.71 35.8398C230.763 35.6855 230.864 35.5521 230.998 35.4587C231.132 35.3652 231.292 35.3166 231.455 35.3197H231.516C231.677 35.317 231.834 35.3661 231.965 35.4597C232.096 35.5534 232.194 35.6866 232.243 35.8398L236.468 45.0648C236.512 45.1577 236.537 45.2581 236.543 45.3605C236.543 45.5111 236.483 45.6554 236.377 45.7619C236.27 45.8683 236.126 45.9281 235.975 45.9281C235.847 45.9232 235.723 45.8793 235.619 45.8022C235.516 45.7251 235.439 45.6185 235.398 45.4965L234.31 43.1171H228.6L227.512 45.5441C227.472 45.6617 227.396 45.7638 227.295 45.8358C227.193 45.9078 227.072 45.946 226.948 45.9451C226.877 45.9456 226.807 45.932 226.742 45.9052C226.676 45.8783 226.617 45.8388 226.567 45.7888C226.517 45.7389 226.477 45.6795 226.451 45.6141C226.424 45.5488 226.41 45.4787 226.411 45.4081C226.408 45.2937 226.434 45.1806 226.485 45.0784ZM233.851 42.0192L231.472 36.6929L229.075 42.0192H233.851Z" fill="#CEDFD7"/>
<path d="M243.25 35.9589C243.25 35.8029 243.312 35.6534 243.422 35.5431C243.532 35.4328 243.682 35.3708 243.838 35.3708C243.994 35.3708 244.143 35.4328 244.254 35.5431C244.364 35.6534 244.426 35.8029 244.426 35.9589V44.7658H249.83C249.974 44.7694 250.11 44.8291 250.21 44.9321C250.309 45.035 250.365 45.1731 250.364 45.3165C250.364 45.3868 250.351 45.4566 250.324 45.5217C250.298 45.5869 250.258 45.6461 250.209 45.696C250.159 45.7459 250.1 45.7855 250.035 45.8126C249.97 45.8396 249.901 45.8535 249.83 45.8535H243.831C243.676 45.85 243.528 45.7857 243.419 45.6746C243.311 45.5634 243.25 45.4141 243.25 45.2587V35.9589Z" fill="#CEDFD7"/>
<path d="M252.063 45.0782L256.288 35.8396C256.341 35.6854 256.442 35.5519 256.576 35.4585C256.71 35.365 256.869 35.3164 257.033 35.3196H257.09C257.252 35.3156 257.411 35.3641 257.542 35.4579C257.674 35.5516 257.772 35.6856 257.821 35.8396L262.046 45.0646C262.09 45.1575 262.115 45.2579 262.121 45.3603C262.121 45.5109 262.061 45.6553 261.955 45.7617C261.848 45.8682 261.704 45.928 261.553 45.928C261.425 45.923 261.3 45.8791 261.197 45.802C261.094 45.7249 261.017 45.6183 260.975 45.4963L259.888 43.117H254.177L253.09 45.5439C253.05 45.6618 252.974 45.7642 252.873 45.8363C252.771 45.9083 252.65 45.9464 252.525 45.945C252.455 45.9454 252.385 45.9318 252.319 45.905C252.254 45.8782 252.195 45.8386 252.145 45.7887C252.095 45.7387 252.055 45.6793 252.028 45.614C252.002 45.5486 251.988 45.4786 251.988 45.4079C251.986 45.2936 252.012 45.1804 252.063 45.0782ZM259.429 42.0191L257.05 36.6928L254.653 42.0191H259.429Z" fill="#CEDFD7"/>
<path d="M268.457 44.6024C268.386 44.5523 268.328 44.4854 268.289 44.4078C268.25 44.3301 268.231 44.2441 268.233 44.1571C268.231 44.0819 268.245 44.0071 268.272 43.937C268.3 43.867 268.341 43.8032 268.394 43.7491C268.446 43.6951 268.509 43.652 268.578 43.6223C268.647 43.5925 268.722 43.5768 268.797 43.5759C268.93 43.5741 269.058 43.6227 269.157 43.7119C270.054 44.5298 271.231 44.9715 272.444 44.9457C273.841 44.9457 274.765 44.2013 274.765 43.1748V43.1442C274.765 42.1789 274.242 41.6282 272.046 41.166C269.667 40.6459 268.549 39.8709 268.549 38.1612V38.1306C268.549 36.4957 269.993 35.289 271.971 35.289C273.16 35.2482 274.328 35.6073 275.289 36.3087C275.365 36.3631 275.428 36.4343 275.472 36.5168C275.516 36.5994 275.541 36.691 275.544 36.7846C275.544 36.9351 275.484 37.0795 275.378 37.186C275.271 37.2924 275.127 37.3522 274.976 37.3522C274.854 37.3565 274.734 37.3194 274.636 37.2469C273.864 36.6521 272.915 36.3326 271.941 36.3393C270.581 36.3393 269.725 37.0837 269.725 38.0219V38.0694C269.725 39.0518 270.262 39.6024 272.553 40.1089C274.844 40.6153 275.952 41.4685 275.952 43.0524V43.083C275.952 44.8675 274.463 46.03 272.396 46.03C270.955 46.0368 269.559 45.5308 268.457 44.6024Z" fill="#CEDFD7"/>
<path d="M277.505 45.0784L281.73 35.8398C281.783 35.6855 281.884 35.5521 282.018 35.4587C282.151 35.3652 282.311 35.3166 282.474 35.3197H282.536C282.697 35.3165 282.855 35.3653 282.986 35.4591C283.117 35.5528 283.214 35.6863 283.263 35.8398L287.488 45.0648C287.532 45.1577 287.557 45.2581 287.563 45.3605C287.563 45.4349 287.549 45.5086 287.521 45.5775C287.493 45.6463 287.451 45.7089 287.399 45.7617C287.346 45.8145 287.284 45.8563 287.215 45.8849C287.147 45.9135 287.073 45.9282 286.999 45.9282C286.87 45.9225 286.745 45.8784 286.642 45.8014C286.538 45.7245 286.46 45.6183 286.417 45.4965L285.333 43.1171H279.619L278.531 45.5441C278.492 45.6623 278.417 45.765 278.315 45.8371C278.214 45.9092 278.092 45.9471 277.967 45.9452C277.897 45.9452 277.827 45.9312 277.762 45.9042C277.697 45.8772 277.638 45.8376 277.589 45.7877C277.539 45.7377 277.5 45.6785 277.473 45.6134C277.447 45.5482 277.433 45.4785 277.434 45.4081C277.429 45.2939 277.454 45.1806 277.505 45.0784ZM284.871 42.0193L282.461 36.7099L280.081 42.0362L284.871 42.0193Z" fill="#CEDFD7"/>
<path d="M289.62 35.9589C289.62 35.8029 289.682 35.6534 289.792 35.5431C289.902 35.4328 290.052 35.3708 290.208 35.3708C290.364 35.3708 290.513 35.4328 290.623 35.5431C290.734 35.6534 290.796 35.8029 290.796 35.9589V44.7658H296.197C296.341 44.7685 296.478 44.8278 296.578 44.9309C296.679 45.034 296.735 45.1725 296.734 45.3165C296.734 45.3871 296.721 45.4572 296.694 45.5225C296.667 45.5879 296.628 45.6473 296.578 45.6972C296.528 45.7472 296.468 45.7867 296.403 45.8136C296.337 45.8404 296.267 45.854 296.197 45.8535H290.201C290.045 45.85 289.898 45.7857 289.789 45.6746C289.68 45.5634 289.62 45.4141 289.62 45.2587V35.9589Z" fill="#CEDFD7"/>
<path d="M298.039 41.492V35.9584C298.032 35.8776 298.043 35.7965 298.07 35.72C298.096 35.6436 298.139 35.5734 298.194 35.514C298.249 35.4546 298.315 35.4072 298.39 35.3748C298.464 35.3424 298.544 35.3257 298.625 35.3257C298.706 35.3257 298.786 35.3424 298.86 35.3748C298.934 35.4072 299.001 35.4546 299.056 35.514C299.111 35.5734 299.153 35.6436 299.18 35.72C299.207 35.7965 299.217 35.8776 299.211 35.9584V41.4173C299.211 43.664 300.418 44.9285 302.396 44.9285C304.317 44.9285 305.537 43.7694 305.537 41.492V35.9584C305.531 35.8776 305.541 35.7965 305.568 35.72C305.595 35.6436 305.637 35.5734 305.692 35.514C305.747 35.4546 305.814 35.4072 305.888 35.3748C305.962 35.3424 306.042 35.3257 306.123 35.3257C306.204 35.3257 306.284 35.3424 306.359 35.3748C306.433 35.4072 306.499 35.4546 306.555 35.514C306.61 35.5734 306.652 35.6436 306.678 35.72C306.705 35.7965 306.716 35.8776 306.71 35.9584V41.3969C306.71 44.4322 304.969 46.0094 302.366 46.0094C299.762 46.0094 298.039 44.439 298.039 41.492Z" fill="#CEDFD7"/>
<path d="M309.613 36.0299C309.613 35.8745 309.673 35.7252 309.782 35.614C309.891 35.5028 310.038 35.4386 310.194 35.4351H313.226C316.499 35.4351 318.763 37.6818 318.763 40.6118V40.6424C318.763 43.5724 316.499 45.8497 313.226 45.8497H310.194C310.038 45.8462 309.891 45.782 309.782 45.6708C309.673 45.5596 309.613 45.4103 309.613 45.2549V36.0299ZM313.226 44.762C315.86 44.762 317.543 42.9775 317.543 40.6832V40.6526C317.543 38.3446 315.843 36.533 313.226 36.533H310.789V44.7654L313.226 44.762Z" fill="#CEDFD7"/>
<path d="M306.805 51.7334H195.425V57.3112H306.805V51.7334Z" fill="#0083AC"/>
<path d="M367.094 51.7334H306.805V57.3112H367.094V51.7334Z" fill="#F5A766"/>
</g>
<defs>
<clipPath id="clip0">
<rect width="367.097" height="60" fill="white"/>
</clipPath>
</defs>
</svg>
