<svg width="184" height="50" viewBox="0 0 184 50" fill="none" xmlns="http://www.w3.org/2000/svg">
<g clip-path="url(#clip0)">
<path d="M181.056 31.7313C181.355 31.5589 181.696 31.4701 182.041 31.4741C182.39 31.469 182.735 31.5559 183.041 31.726C183.333 31.89 183.576 32.1298 183.744 32.4202C183.912 32.7213 184 33.0605 184 33.4055C184 33.7505 183.912 34.0898 183.744 34.3909C183.576 34.6813 183.333 34.921 183.041 35.0851C182.735 35.2552 182.39 35.3421 182.041 35.337C181.696 35.341 181.357 35.2541 181.056 35.0851C180.765 34.9208 180.524 34.681 180.358 34.3909C180.099 33.9458 180.027 33.416 180.158 32.9177C180.288 32.4194 180.612 31.9935 181.056 31.7335V31.7313ZM182.895 31.9546C182.635 31.8099 182.342 31.7366 182.045 31.742C181.75 31.7366 181.459 31.81 181.202 31.9546C180.952 32.0975 180.746 32.3054 180.605 32.5562C180.459 32.8187 180.386 33.1151 180.392 33.4151C180.387 33.7107 180.46 34.0023 180.605 34.2602C180.747 34.5088 180.953 34.7148 181.202 34.8565C181.459 35.0014 181.75 35.0748 182.045 35.0691C182.342 35.0748 182.636 35.0015 182.895 34.8565C183.144 34.7134 183.35 34.5055 183.491 34.2549C183.635 33.9945 183.71 33.7019 183.71 33.4045C183.71 33.107 183.635 32.8145 183.491 32.5541C183.35 32.3042 183.144 32.0971 182.895 31.9546ZM182.695 32.4861C182.817 32.5972 182.891 32.7507 182.903 32.915C182.915 33.0793 182.863 33.2419 182.759 33.3694C182.654 33.4833 182.514 33.5583 182.361 33.582L182.914 34.5142H182.595L182.081 33.6309H181.605V34.5142H181.324V32.299H182.139C182.341 32.2884 182.54 32.3544 182.695 32.4839V32.4861ZM182.128 33.3885C182.254 33.3941 182.378 33.3545 182.477 33.2769C182.524 33.2381 182.56 33.1891 182.583 33.1337C182.607 33.0783 182.617 33.0181 182.613 32.958C182.616 32.8999 182.605 32.842 182.582 32.7889C182.558 32.7357 182.522 32.6888 182.477 32.6519C182.377 32.5767 182.253 32.5391 182.128 32.5456H181.604V33.3907L182.128 33.3885Z" fill="#313D3B"/>
<path d="M51.3816 41.0719C51.7023 39.9581 51.8661 38.805 51.8682 37.6459C51.8682 30.8427 46.4119 25.2992 39.7053 25.2992C35.5058 25.2992 31.7961 27.472 29.613 30.7683L26.0393 28.6721V24.6614C32.4133 24.2809 37.4839 18.9138 37.4839 12.352C37.4845 9.72307 36.6492 7.16213 35.099 5.03965L33.7052 5.89004L26.0371 10.5396V0.0372047C25.7992 0.0223229 25.5633 0 25.3211 0C25.0141 0 24.7134 0.0244488 24.4128 0.0467717V1.69228V23.001C19.0203 22.5333 14.772 17.938 14.772 12.3467C14.772 7.48241 17.9888 3.37394 22.3741 2.07815V0.377362C17.0858 1.71673 13.1508 6.5693 13.1508 12.3467C13.1508 18.8447 18.1258 24.1746 24.4117 24.6466V28.6264L20.9633 30.6557C18.7728 27.4252 15.1045 25.2992 10.9539 25.2992C6.33479 25.2992 2.31061 27.9259 0.251777 31.7835L1.11334 32.3405L1.09953 32.3628L9.2127 37.5715L8.35325 38.0764L1.40549 42.1657L0 42.9906C0.235537 43.4887 0.503838 43.9706 0.803136 44.4331L1.92604 43.7655L20.3865 32.8996C21.1139 34.376 21.4926 35.9999 21.4935 37.6459C21.4935 43.5466 16.7649 48.347 10.9528 48.347C9.5653 48.3455 8.19201 48.0671 6.91331 47.5281C5.6346 46.9891 4.47616 46.2004 3.50575 45.208L2.07902 46.0584C3.20493 47.295 4.57592 48.2834 6.10465 48.9605C7.63338 49.6377 9.28631 49.9888 10.9581 49.9915C17.6637 49.9915 23.1199 44.4522 23.1199 37.6448C23.1198 35.7091 22.6665 33.8003 21.7962 32.0716L25.1957 30.0731L28.8162 32.1991C27.9819 33.8938 27.5459 35.7568 27.5414 37.6459C27.5414 44.449 32.9976 49.9926 39.7043 49.9926C39.8827 49.9926 40.058 49.9809 40.2354 49.9724L40.2237 48.8977H40.2344L40.0825 38.8205L48.3858 43.689C48.3837 43.6928 48.3812 43.6964 48.3783 43.6996L49.7881 44.5245C50.0927 44.0648 50.3667 43.5854 50.6082 43.0895L49.2059 42.2593V42.2678L31.0206 31.5953C32.9233 28.7901 36.105 26.9447 39.7064 26.9447C45.5185 26.9447 50.2491 31.7452 50.2491 37.6459C50.2458 38.5109 50.1388 39.3724 49.9304 40.212L51.3816 41.0719ZM10.9624 36.5436L2.5847 31.1616C4.5118 28.603 7.54268 26.9437 10.9528 26.9437C14.5053 26.9437 17.6456 28.7423 19.5579 31.4848L10.9624 36.5436ZM34.6645 7.41756C35.4517 8.94113 35.8619 10.6315 35.8607 12.3467C35.8607 18.0007 31.5146 22.6332 26.0371 23.0106V12.6581L34.6645 7.41756ZM38.2765 37.7479L38.4337 48.2599C33.2218 47.6221 29.1679 43.1076 29.1679 37.6459C29.1697 36.0456 29.5283 34.4659 30.2175 33.0219L38.2765 37.7479Z" fill="#313D3B"/>
<path d="M66.5299 31.1914C67.9004 30.3452 69.5059 29.9225 71.3466 29.9232C73.4125 29.9232 75.1498 30.4682 76.5585 31.5581C77.9672 32.648 78.8879 34.1794 79.3206 36.1524H77.8333C77.3829 34.611 76.5943 33.4222 75.4675 32.586C74.3407 31.7498 72.9508 31.3317 71.2978 31.3317C69.7956 31.3317 68.4811 31.6984 67.3543 32.4319C66.2275 33.1653 65.3543 34.1848 64.7346 35.4901C64.1148 36.7955 63.805 38.2837 63.805 39.9547C63.805 41.6257 64.1102 43.1139 64.7207 44.4193C65.3305 45.7246 66.1942 46.7437 67.3118 47.4764C68.4294 48.2092 69.7113 48.5766 71.1575 48.5787C72.5846 48.5787 73.8286 48.2829 74.8896 47.6911C75.9189 47.1301 76.7683 46.2887 77.3393 45.2643C77.9059 44.2453 78.1892 43.0877 78.1892 41.7915V40.9411H71.7089V39.5348H79.6531V49.8224H78.3889L78.2487 45.3132C77.7791 46.6285 76.9339 47.7372 75.7129 48.6393C74.4919 49.5415 72.9614 49.9925 71.1214 49.9925C69.394 49.9925 67.854 49.5695 66.5012 48.7233C65.1485 47.8772 64.0968 46.6951 63.3461 45.1772C62.5953 43.655 62.22 41.9187 62.22 39.9685C62.22 38.0183 62.5953 36.2799 63.3461 34.7535C64.0982 33.2249 65.1595 32.0375 66.5299 31.1914Z" fill="#313D3B"/>
<path d="M89.8819 36.9135H88.9513C87.4123 36.9135 86.3418 37.4347 85.7398 38.4772C85.1378 39.5196 84.8376 40.887 84.839 42.5793V49.8225H83.4016V35.5327H84.6414L84.8666 38.3741C85.164 37.5477 85.692 36.8239 86.3879 36.2885C87.0642 35.7811 88.0129 35.5277 89.2339 35.5284H89.8819V36.9135Z" fill="#313D3B"/>
<path d="M91.5744 46.4688C90.9923 45.3605 90.7012 44.092 90.7012 42.6633C90.7012 41.2346 90.9923 39.9711 91.5744 38.8727C92.1273 37.8044 92.9664 36.9112 93.9976 36.2928C95.0302 35.6727 96.2133 35.3627 97.5469 35.3627C98.8805 35.3627 100.068 35.6727 101.11 36.2928C102.147 36.9084 102.991 37.802 103.547 38.8727C104.129 39.9718 104.42 41.2354 104.42 42.6633C104.42 44.0913 104.129 45.3598 103.547 46.4688C102.995 47.5456 102.15 48.4446 101.11 49.0625C100.068 49.6819 98.8805 49.9919 97.5469 49.9926C96.2133 49.9934 95.0302 49.6833 93.9976 49.0625C92.9639 48.4411 92.1245 47.5427 91.5744 46.4688ZM102.28 45.7928C102.743 44.8155 102.974 43.7446 102.955 42.6633C102.955 41.4983 102.73 40.4601 102.28 39.5487C101.946 38.8935 101.48 38.3142 100.912 37.8471C100.344 37.3801 99.6859 37.0352 98.9787 36.8342C98.2715 36.6332 97.5305 36.5803 96.8019 36.6788C96.0734 36.7773 95.373 37.0252 94.7445 37.4068C93.9209 37.9277 93.2604 38.6699 92.8386 39.5487C92.3882 40.4594 92.163 41.4976 92.163 42.6633C92.1445 43.7446 92.3758 44.8155 92.8386 45.7928C93.2553 46.6739 93.9156 47.4172 94.7413 47.9347C95.5845 48.4489 96.5564 48.7129 97.5438 48.6958C98.5357 48.7119 99.5121 48.4481 100.361 47.9347C101.191 47.4199 101.855 46.6761 102.273 45.7928H102.28Z" fill="#313D3B"/>
<path d="M107.036 35.5326L111.206 48.1035L115.516 35.5326H116.867L120.924 48.1035L125.319 35.5326H126.783L121.713 49.8224H120.163L116.135 37.8159L111.938 49.8277L110.36 49.8564L105.515 35.5379L107.036 35.5326Z" fill="#313D3B"/>
<path d="M134.642 49.9926C133.308 49.9926 132.13 49.6826 131.107 49.0625C130.083 48.442 129.257 47.5423 128.726 46.4688C128.163 45.3605 127.88 44.0828 127.876 42.6357C127.876 41.207 128.162 39.9431 128.735 38.844C129.278 37.7768 130.113 36.8869 131.144 36.279C132.176 35.6688 133.359 35.3634 134.693 35.3627C136.289 35.3627 137.622 35.7903 138.693 36.6457C139.764 37.5011 140.43 38.6611 140.693 40.1259H139.256C139.046 39.1094 138.476 38.2032 137.651 37.5748C136.824 36.9455 135.82 36.6305 134.637 36.6298C133.667 36.6121 132.712 36.8769 131.89 37.3919C131.08 37.9125 130.431 38.6487 130.017 39.5179C129.566 40.4293 129.341 41.4674 129.341 42.6325C129.341 43.7975 129.566 44.8403 130.017 45.7609C130.43 46.6389 131.078 47.3851 131.89 47.9166C132.709 48.4396 133.665 48.7095 134.637 48.6926C135.82 48.6926 136.824 48.378 137.651 47.7487C138.476 47.1202 139.046 46.214 139.256 45.1975H140.693C140.41 46.6814 139.729 47.8507 138.65 48.7054C137.572 49.56 136.236 49.9891 134.642 49.9926Z" fill="#313D3B"/>
<path d="M156.755 49.8226H155.905C155.079 49.8226 154.473 49.616 154.088 49.2028C153.704 48.7897 153.53 48.2072 153.567 47.4553V46.8632C153.141 47.8146 152.433 48.6118 151.539 49.1465C150.618 49.7099 149.473 49.9934 148.102 49.9969C146.562 49.9969 145.332 49.6302 144.412 48.8967C143.492 48.1632 143.031 47.1676 143.031 45.9097C143.031 44.5569 143.514 43.5091 144.482 42.7664C145.449 42.0237 146.843 41.6528 148.664 41.6535H153.51V40.4098C153.51 39.2256 153.139 38.3001 152.397 37.6332C151.656 36.9664 150.618 36.6326 149.285 36.6319C148.101 36.6319 147.139 36.8952 146.397 37.4217C145.68 37.92 145.185 38.6778 145.016 39.5349H143.58C143.767 38.2381 144.369 37.2187 145.386 36.4767C146.403 35.7347 147.727 35.3634 149.358 35.3627C151.142 35.3627 152.523 35.8045 153.501 36.6882C154.479 37.5719 154.967 38.8309 154.965 40.465V47.1172C154.965 47.5488 155.078 47.8872 155.304 48.1324C155.424 48.2563 155.569 48.3531 155.729 48.4162C155.889 48.4793 156.061 48.5072 156.233 48.4981H156.765L156.755 49.8226ZM148.557 42.8887C147.242 42.8887 146.238 43.1424 145.543 43.6498C144.848 44.1572 144.501 44.8807 144.501 45.8204C144.501 46.7034 144.834 47.4121 145.5 47.9464C146.167 48.4807 147.064 48.7486 148.19 48.75C149.843 48.75 151.144 48.3131 152.092 47.4393C153.041 46.5656 153.515 45.4335 153.515 44.0431V42.8887H148.557Z" fill="#313D3B"/>
<path d="M160.923 47.8635C161.749 48.4559 162.839 48.7522 164.191 48.7522C165.374 48.7522 166.351 48.4985 167.121 47.9911C167.89 47.4837 168.276 46.8165 168.276 45.9895C168.276 45.3325 168.093 44.8205 167.727 44.4534C167.331 44.0696 166.84 43.7975 166.305 43.6647C165.535 43.4666 164.755 43.3111 163.967 43.1991C162.979 43.073 162 42.8798 161.038 42.6208C160.332 42.4318 159.69 42.057 159.178 41.5355C158.691 41.0288 158.447 40.3244 158.446 39.4223C158.439 38.6613 158.683 37.9191 159.14 37.3112C159.63 36.6687 160.282 36.1676 161.028 35.8591C161.889 35.4997 162.814 35.3224 163.747 35.3383C165.38 35.3383 166.709 35.7 167.732 36.4236C168.756 37.1471 169.333 38.1935 169.463 39.5626H168.027C167.972 39.123 167.824 38.7003 167.592 38.3229C167.36 37.9455 167.05 37.6222 166.683 37.375C165.923 36.8364 164.97 36.5671 163.825 36.5671C162.642 36.5671 161.686 36.8211 160.957 37.3292C160.228 37.8374 159.862 38.4946 159.858 39.3011C159.858 39.9219 160.041 40.4013 160.408 40.7393C160.786 41.0846 161.246 41.3273 161.745 41.4441C162.498 41.6153 163.26 41.747 164.027 41.8385C165.048 41.9656 166.056 42.179 167.041 42.4763C167.779 42.6973 168.445 43.1108 168.971 43.6742C169.467 44.2192 169.715 44.9633 169.715 45.9065C169.715 47.146 169.184 48.1381 168.121 48.8829C167.059 49.6277 165.749 49.9991 164.191 49.9969C162.388 49.9969 160.942 49.5972 159.853 48.7979C158.764 47.9985 158.2 46.876 158.163 45.4303H159.599C159.612 45.9117 159.739 46.3831 159.969 46.806C160.199 47.2289 160.526 47.5913 160.923 47.8635Z" fill="#313D3B"/>
<path d="M170.81 36.8569V35.5324H173.515V31.5292H174.951V35.5324H178.754V36.8569H174.951V46.4685C174.951 47.2019 175.101 47.7235 175.402 48.0332C175.703 48.3429 176.21 48.4977 176.923 48.4977H179.006V49.8222H176.864C175.66 49.8222 174.801 49.5593 174.287 49.0335C173.773 48.5077 173.515 47.6619 173.512 46.4961V36.8569H170.81Z" fill="#313D3B"/>
</g>
<defs>
<clipPath id="clip0">
<rect width="184" height="50" fill="white"/>
</clipPath>
</defs>
</svg>
