<svg width="184" height="56" viewBox="0 0 184 56" fill="none" xmlns="http://www.w3.org/2000/svg">
<g clip-path="url(#clip0)">
<path d="M36.2929 17.1739C36.214 17.023 36.1263 16.8769 36.0303 16.7363L27.9131 3.24404C27.2642 1.88135 26.1005 0.832276 24.678 0.327587C23.2556 -0.177103 21.6909 -0.0960634 20.3283 0.552878C18.9656 1.20182 17.9165 2.36551 17.4118 3.78794C16.9071 5.21037 16.9882 6.77503 17.6371 8.13771C17.7817 8.43668 17.9526 8.72223 18.1476 8.991L26.2065 22.4322C26.5423 23.1107 27.0102 23.7154 27.5828 24.2107C28.1553 24.7061 28.8209 25.0822 29.5407 25.317C30.2604 25.5518 31.0198 25.6405 31.7743 25.578C32.5288 25.5155 33.2633 25.3031 33.9346 24.9531C34.6059 24.6031 35.2006 24.1227 35.6839 23.5399C36.1671 22.9571 36.5292 22.2837 36.7488 21.5592C36.9684 20.8346 37.0413 20.0736 36.963 19.3205C36.8847 18.5675 36.6569 17.8377 36.2929 17.1739Z" fill="#313D3B"/>
<path d="M10.8254 31.6437C10.7963 31.5927 10.7744 31.5416 10.7452 31.4833C10.4019 30.8195 9.93115 30.2299 9.35994 29.7481C8.78873 29.2663 8.12822 28.9018 7.41612 28.6752C6.70401 28.4487 5.95426 28.3647 5.20967 28.4279C4.46508 28.4911 3.74023 28.7004 3.07651 29.0437C2.4128 29.3871 1.82321 29.8578 1.34141 30.429C0.859607 31.0002 0.495033 31.6607 0.268501 32.3728C0.0419678 33.0849 -0.0420872 33.8347 0.0211347 34.5793C0.0843566 35.3239 0.293617 36.0487 0.636969 36.7124C0.702607 36.8364 0.768245 36.9531 0.833883 37.0698L6.14327 47.6959C6.43682 48.383 6.86284 49.0057 7.39702 49.5282C7.9312 50.0507 8.56306 50.463 9.25655 50.7413C9.95003 51.0196 10.6915 51.1587 11.4388 51.1504C12.186 51.1422 12.9242 50.9869 13.6114 50.6933C14.2986 50.3998 14.9212 49.9738 15.4438 49.4396C15.9663 48.9054 16.3785 48.2735 16.6569 47.58C16.9352 46.8866 17.0742 46.145 17.066 45.3978C17.0578 44.6506 16.9024 43.9124 16.6089 43.2252C16.5234 43.0227 16.426 42.8254 16.3172 42.6344L10.8254 31.6437Z" fill="#313D3B"/>
<path d="M33.31 42.5466L13.6113 8.75762C12.9266 7.42105 11.739 6.41123 10.3097 5.95031C8.88044 5.48938 7.32661 5.61511 5.99004 6.29984C4.65347 6.98457 3.64365 8.1722 3.18273 9.60147C2.72181 11.0307 2.84754 12.5846 3.53226 13.9211C3.63437 14.1108 3.74376 14.3004 3.86045 14.4827L23.5591 48.4394C24.3436 49.7262 25.6059 50.6498 27.0698 51.0078C28.5338 51.3659 30.0799 51.1293 31.3697 50.3498C32.6595 49.5703 33.5879 48.3115 33.9516 46.8489C34.3153 45.3864 34.0846 43.8394 33.31 42.5466Z" fill="#313D3B"/>
<path d="M49.0117 37.9809C49.3253 40.4023 50.7329 41.8828 53.4459 41.8828C56.1808 41.8828 57.0487 40.7377 57.0487 39.1041C57.0487 36.9526 55.6266 35.9826 51.5643 34.8668C44.1545 32.8612 41.9301 30.0387 41.9301 25.8671C41.9301 19.8649 46.8165 16.7726 53.0448 16.7726C60.4108 16.7726 64.2324 20.317 64.5679 25.8233H56.8008C56.5601 23.9636 55.7068 22.4247 53.074 22.4247C51.0538 22.4247 49.9598 23.3583 49.9598 24.9482C49.9598 26.7933 51.2872 27.3257 55.2619 28.4561C63.1166 30.6878 65.2972 33.6707 65.2972 38.1851C65.2972 43.8519 61.0818 47.5933 53.198 47.5933C45.8392 47.5933 41.4998 43.9029 41.1716 37.9664L49.0117 37.9809Z" fill="#313D3B"/>
<path d="M75.2306 37.3171C75.216 39.9061 76.0547 42.0941 78.5563 42.0941C80.5619 42.0941 81.1745 40.9053 81.4808 39.8697H89.1167C88.1978 43.3193 85.689 47.5347 78.3521 47.5347C70.1765 47.5347 67.1936 42.167 67.1936 35.698C67.1936 29.9219 70.1109 23.7957 78.5782 23.7957C86.885 23.7957 89.3866 29.477 89.3866 35.4209C89.3866 35.647 89.3574 37.0691 89.3282 37.3171H75.2306ZM81.5027 32.912C81.4444 30.7606 80.8099 28.9883 78.4542 28.9883C76.011 28.9883 75.3327 30.8846 75.2744 32.912H81.5027Z" fill="#313D3B"/>
<path d="M91.3923 31.4097C91.3923 26.6983 91.3631 25.3053 91.3193 24.277H99.1084C99.1959 24.6854 99.298 25.9909 99.3126 26.8296C100.304 25.2397 102.354 23.7957 105.534 23.7957C110.238 23.7957 112.571 26.9682 112.571 31.9275V47.0898H104.607V33.2402C104.607 31.0742 104.126 29.7833 102.135 29.7833C100.304 29.7833 99.3563 30.7679 99.3563 33.9404V47.0753H91.3923V31.4097Z" fill="#313D3B"/>
<path d="M121.571 39.8704C121.761 41.4967 122.898 42.4084 124.722 42.4084C126.348 42.4084 127.223 41.8322 127.223 40.7091C127.223 39.513 126.071 39.0973 123.241 38.3388C116.422 36.6322 114.956 34.4224 114.956 31.053C114.956 27.5377 117.472 23.7891 124.459 23.7891C131.431 23.7891 133.991 27.3189 134.21 30.9582H127.019C126.902 29.8278 126.239 28.6973 124.313 28.6973C123.03 28.6973 122.293 29.2151 122.293 30.2216C122.293 31.1697 123.103 31.5854 126.428 32.4168C132.555 33.9629 134.742 36.1436 134.742 40.0016C134.742 44.6692 130.986 47.5281 124.605 47.5281C118.1 47.5281 114.716 44.6109 114.314 39.8631L121.571 39.8704Z" fill="#313D3B"/>
<path d="M136.872 15.686H144.836V21.4476H136.872V15.686ZM136.872 24.27H144.836V47.0828H136.872V24.27Z" fill="#313D3B"/>
<path d="M149.197 47.0824V29.8707H146.397V24.2696H149.197V22.8912C149.197 17.9538 151.597 15.3866 156.819 15.3866C158.292 15.3866 159.459 15.5762 160.057 15.7513V21.0825C159.64 21.0072 159.218 20.9682 158.795 20.9658C157.511 20.9658 157.139 21.7827 157.139 22.9495V24.2623H160.458V29.8634H157.139V47.0751H149.197V47.0824Z" fill="#313D3B"/>
<path d="M169.29 24.2699C171.069 31.6214 172.323 37.5434 172.622 40.5627H172.768C173.315 37.3829 174.854 29.9877 176.116 24.2699H184L177.152 46.2513C174.621 54.4852 172.221 55.7615 166.788 55.7615C165.7 55.7481 164.613 55.6653 163.535 55.5136V49.701C164.187 49.7764 164.842 49.8153 165.497 49.8177C167.102 49.8177 168.035 49.0592 168.414 47.8048L160.757 24.2772L169.29 24.2699Z" fill="#313D3B"/>
</g>
<defs>
<clipPath id="clip0">
<rect width="184" height="55.7616" fill="white"/>
</clipPath>
</defs>
</svg>
